<?xml version="1.0" encoding="utf-8"?>
<!-- Designed by Vexels.com - 2020 All Rights Reserved - https://vexels.com/terms-and-conditions/  -->
<svg version="1.1" id="Layer_1" xmlns="http://www.w3.org/2000/svg" xmlns:xlink="http://www.w3.org/1999/xlink" x="0px" y="0px"
	 viewBox="0 0 1200 1200" enable-background="new 0 0 1200 1200" xml:space="preserve">
<g>
	<g>
		<path fill="#F6E5C9" d="M1002.25,921.234c-24.668,20.852-51.782,38.926-80.774,53.465c-33.557,16.828-66.084,12.895-103.141,12.96
			c-78.338,0.139-156.676,0.275-235.014,0.399c-103.064,0.164-206.165,1.06-309.228,0.272c-10.451-0.086-20.046-0.69-30.168-0.884
			c-29.32-0.562-47.028,1.48-71.94-13.697c-28.767-17.526-58.276-38.638-79.76-64.546c-43.878-52.915-49.468-133.337-13.318-191.619
			c41.76-67.328,124.286-96.253,199.402-124.023c96.939-35.837,192.225-77.803,277.735-135.218
			c62.461-41.94,121.182-92.814,193.603-114.321c39.348-11.686,81.193-14.046,122.101-10.07
			c107.733,10.473,214.699,71.468,256.864,169.417c20.32,47.203,24.774,99.976,19.143,150.927
			c-10.667,96.52-59.276,187.584-130.9,254.005C1012.089,912.721,1007.219,917.034,1002.25,921.234z"/>
	</g>
	<g>
		<path fill="#241B14" d="M844.326,676.958c0.717-2.212,2.527-4.209,4.832-4.511c2.399-0.314,4.741,1.292,5.944,3.391
			c1.203,2.099,1.474,4.599,1.533,7.018c0.094,3.879-1.581,13.071-7.561,10.933C844.248,692.063,843.061,680.865,844.326,676.958z"
			/>
	</g>
	<g>
		<path fill="#241B14" d="M939.929,630.602c2.971-0.241,7.482,1.103,7.547-2.979c0.221-13.817,0.44-27.693-1.348-41.396
			c3.214-5.737,6.427-11.473,9.641-17.21c-0.789,10.378-0.96,20.802-0.515,31.201c0.209,4.884-0.741,25.591,3.517,28.117
			c1.598,0.948,4.174-1.996,5.573-1.266c2.819,1.469,1.435,6.857,1.41,10.042c-0.083,10.625-0.159,21.25-0.238,31.875
			c-0.004,0.533-0.019,1.101-0.321,1.539c-0.476,0.69-1.445,0.781-2.283,0.785c-8.11,0.044-20.807-0.16-22.388-9.45
			C940.011,658.845,940.135,630.586,939.929,630.602z"/>
	</g>
	<g>
		<path fill="#FEA501" d="M1001.609,814.186c-0.498,20.6-0.724,41.222-1.696,61.776c-0.249,5.314-0.43,10.628-0.565,15.942
			c-0.611,21.798-0.497,43.573-0.633,65.371c-0.023,4.319,0.181,8.661,0.204,13.002c0.023,2.171-0.068,4.342-0.204,6.49
			c-0.181,2.51-2.239,4.748-4.816,5.088c-2.51,0.316-5.042,0.52-7.552,0.565c-10.854,0.203-21.685,0.316-32.539,0.475v0.294
			c-11.193-0.316-22.386-0.656-33.579-0.972c-5.11-0.158-10.085-1.063-14.901-2.6c-1.741-0.543-3.098-1.922-3.527-3.821
			c-0.294-1.402-0.43-2.872-0.497-4.296c-0.543-10.107-1.357-20.215-1.447-30.323c-0.136-16.032-0.385-85.428-0.452-104.083
			c-0.045-9.61,0.452-19.22,1.063-28.808c0.52-8.073,1.086-16.145,1.492-24.24c0.249-5.042,1.176-10.062,2.035-15.037
			c0.43-2.465,1.266-4.884,2.148-7.258c1.56-4.183,4.251-7.53,8.095-9.881c1.538-0.95,3.143-1.764,4.703-2.691
			c1.854-1.108,3.754-2.171,5.54-3.392c6.964-4.793,10.876-11.487,11.69-19.853c0.43-4.319,0.656-8.66,0.678-13.002
			c0-5.404-0.226-10.831-0.475-16.236c-0.09-2.261-0.859-4.206-3.098-5.314c-3.618-1.786-5.178-4.884-5.246-8.796
			c-0.113-5.404-0.203-10.831-0.203-16.258c0-2.917,0.543-5.744,1.945-8.367c0.724-1.334,1.786-2.216,3.279-2.533
			c0.701-0.158,1.425-0.294,2.148-0.362c5.382-0.475,10.763-1.085,16.167-1.38c6.151-0.316,12.278-0.429,18.429-0.475
			c3.279-0.023,5.314,1.922,5.947,5.178c0.09,0.339,0.271,0.701,0.271,1.04c0.09,5.427,0.384,10.854,0.136,16.235
			c-0.181,3.641-1.312,7.146-4.748,9.294c-2.058,1.289-2.761,3.299-2.807,5.538c-0.249,10.469-0.472,20.941-0.585,31.433
			c-0.045,3.618,0.497,7.168,1.424,10.695c1.198,4.455,3.505,7.892,7.643,10.017c1.922,0.995,3.867,1.945,5.721,3.053
			c8.14,4.839,13.545,11.849,15.919,21.006c0.905,3.482,1.492,7.078,1.786,10.673c0.565,7.326,0.95,14.698,1.108,22.024
			C1001.723,804.328,1001.723,809.257,1001.609,814.186z"/>
	</g>
	<g>
		<path fill="#241B14" d="M1001.609,814.186c-0.498,20.6-0.724,41.222-1.696,61.776c-0.249,5.314-0.43,10.628-0.565,15.942
			c-33.194,2.578-66.547,2.939-99.764,1.131c-0.068-18.632-0.113-37.287-0.181-55.942c-0.045-9.61,0.452-19.22,1.063-28.808
			c24.308-0.792,72.652-6.037,101.143-8.887C1001.723,804.328,1001.723,809.257,1001.609,814.186z"/>
	</g>
	<g>
		<path fill="#C28953" d="M869.139,722.843c1.734,0.896,2.926,1.477,4.085,2.118c1.901,1.053,3.092,2.692,3.094,4.854
			c0.009,8.739,0.112,17.487-0.266,26.213c-0.126,2.922-1.314,5.9-2.487,8.652c-2.37,5.562-5.084,10.975-7.611,16.471
			c-1.261,2.743-2.528,5.493-3.558,8.325c-0.284,0.781,0.001,2.062,0.505,2.775c0.958,1.356,2.328,2.412,3.408,3.693
			c2.866,3.402,3.129,7.305,1.953,11.404c-0.275,0.958-0.751,1.868-1.215,2.759c-2.857,5.493-3.413,5.996,0.539,11.886
			c0.554,0.825,0.878,1.809,1.274,2.734c2.256,5.269,2.02,10.492-0.433,15.614c-0.722,1.507-1.517,3.043-2.584,4.309
			c-2.785,3.304-3.582,7.121-3.419,11.281c0.039,1.006-0.055,2.016-0.061,3.025c-0.046,7.732-0.347,15.475-0.053,23.195
			c0.283,7.429,3.013,14.448,4.753,21.606c3.733,15.357,6.699,30.857,9.663,46.364c1.135,5.94,2.405,11.857,3.382,17.823
			c0.484,2.956,0.538,5.996,0.6,9.002c0.03,1.448-1.034,2.442-2.29,3.054c-0.896,0.437-1.857,0.857-2.83,0.999
			c-1.99,0.291-4.005,0.502-6.015,0.548c-10.082,0.227-41.675,0.755-47.388,0.739c-3.016-0.009-6.043-0.132-9.043-0.424
			c-2.934-0.286-4.73-2.337-5.063-5.374c-0.073-0.668-0.184-1.34-0.171-2.008c0.251-12.433,0.417-24.86,2.069-37.227
			c1.647-12.336,3.819-24.56,6.537-36.704c1.035-4.625,2.296-9.131,4.511-13.317c1.289-2.436,1.899-4.958,2.034-7.703
			c0.364-7.383,0.807-14.764,1.352-22.136c0.232-3.144-0.124-6.02-2.181-8.543c-0.634-0.778-1.167-1.648-1.675-2.516
			c-3.138-5.356-3.106-10.834-0.574-16.393c0.139-0.305,0.36-0.576,0.475-0.888c0.796-2.151,3.529-3.623,2.794-6.186
			c-0.532-1.855-2.001-3.436-3.023-5.157c-1.847-3.11-1.754-6.457-0.88-9.771c0.864-3.274,2.283-6.388,4.591-8.889
			c3.946-4.275,4.084-8.686,1.824-13.912c-2.527-5.844-4.437-11.966-6.418-18.031c-1.674-5.127-2.698-10.408-2.676-15.844
			c0.03-7.394,0.054-14.787,0.095-22.18c0.018-3.205,1.716-4.794,4.818-5.408c1.801-0.357,2.138-1.386,1.536-2.855
			c-1.143-2.794-2.523-5.52-3.367-8.403c-2.643-9.027-0.305-15.732,7.289-21.158c1.899-1.357,3.987-2.516,6.123-3.463
			c4.95-2.194,10.232-3.349,15.562-4.027c12.857-1.635,22.674,7.385,25.401,18.267c0.911,3.637,0.784,7.383-0.61,10.922
			C872.29,716.064,870.819,719.075,869.139,722.843z"/>
	</g>
	<g>
		<g>
			<path fill="#CD8C38" d="M947.856,693.237c0.311-0.024,0.543-0.298,0.518-0.609c-0.024-0.309-0.29-0.537-0.608-0.517
				c-4.421,0.356-8.864,0.354-13.286,0.073c0.419,0.361,0.758,0.767,1.024,1.212c1.616,0.084,3.233,0.141,4.852,0.141
				C942.857,693.537,945.361,693.438,947.856,693.237z"/>
		</g>
		<g>
			<path fill="#CD8C38" d="M959.475,691.157c1.774,0.124,3.553,0.183,5.333,0.183c1.256,0,2.512-0.081,3.767-0.142
				c0.005-0.234,0.013-0.467,0.018-0.701c0.003-0.136,0.031-0.263,0.039-0.397c-3.027,0.15-6.065,0.188-9.08-0.069
				c-0.302-0.026-0.581,0.212-0.603,0.523C958.929,690.867,959.164,691.137,959.475,691.157z"/>
		</g>
		<g>
			<path fill="#CD8C38" d="M901.016,799.737c-0.025,0.376-0.049,0.752-0.074,1.129c3.944,0.484,8.041,0.585,12.209,0.606
				c1.398,0.007,2.79,0.011,4.188,0.011c28.072,0,56.445-1.424,84.226-3.018c-0.009-0.378-0.011-0.756-0.022-1.134
				c-29.147,1.664-58.961,3.124-88.386,3.01C909.006,800.32,904.927,800.222,901.016,799.737z"/>
		</g>
		<g>
			<path fill="#CD8C38" d="M922.953,890.104c-7.752,0.323-15.725,0.646-23.385-0.946c0.001,0.383,0.005,0.767,0.006,1.15
				c4.502,0.914,9.085,1.198,13.661,1.198c3.27,0,6.537-0.137,9.764-0.272l76.454-3.202c0.012-0.378,0.02-0.756,0.032-1.134
				L922.953,890.104z"/>
		</g>
	</g>
	<g>
		<g>
			<path fill="#8C4C20" d="M823.117,720.818c0.009,0.022,0.013,0.042,0.022,0.064c4.49,0.957,9.048,1.655,13.602,2.055l0.051,0.002
				c0.289,0,0.537-0.221,0.562-0.517c0.028-0.309-0.202-0.585-0.513-0.612c-4.771-0.42-9.546-1.174-14.242-2.212
				C822.772,720.005,822.95,720.41,823.117,720.818z"/>
		</g>
		<g>
			<path fill="#8C4C20" d="M851.525,721.594c-0.008,0.311,0.238,0.57,0.551,0.579l17.172,0.429c0.173-0.387,0.337-0.746,0.506-1.118
				l-17.649-0.441C851.74,721.027,851.534,721.281,851.525,721.594z"/>
		</g>
		<g>
			<path fill="#8C4C20" d="M841.228,790.704c-0.062-0.305-0.365-0.495-0.666-0.442c-4.411,0.889-8.885,1.247-13.361,1.131
				c-0.002,0.38,0.003,0.76-0.04,1.133c0.532,0.014,1.064,0.049,1.595,0.049c4.031,0,8.057-0.402,12.029-1.203
				C841.091,791.309,841.29,791.011,841.228,790.704z"/>
		</g>
		<g>
			<path fill="#8C4C20" d="M835.297,827.157c0.311-0.015,0.552-0.28,0.538-0.592c-0.013-0.311-0.283-0.519-0.591-0.539
				c-4.176,0.192-8.385,0.061-12.525-0.369c-0.227,0.361-0.484,0.714-0.758,1.063c3.111,0.349,6.265,0.527,9.418,0.527
				C832.687,827.248,833.993,827.217,835.297,827.157z"/>
		</g>
		<g>
			<path fill="#8C4C20" d="M866.987,824.353c-0.007-0.311-0.246-0.576-0.577-0.552l-17.3,0.378c-0.313,0.007-0.56,0.265-0.553,0.579
				c0.007,0.307,0.258,0.552,0.565,0.552l17.312-0.378C866.746,824.925,866.994,824.667,866.987,824.353z"/>
		</g>
		<g>
			<path fill="#8C4C20" d="M833.294,899.379c0.312,0,0.565-0.254,0.565-0.565s-0.253-0.565-0.565-0.565h-16.227
				c-0.093,0.376-0.184,0.753-0.273,1.131H833.294z"/>
		</g>
		<g>
			<path fill="#8C4C20" d="M861.548,898.745c-0.034-0.309-0.322-0.561-0.624-0.499l-13.352,1.479c-0.31,0.033-0.534,0.314-0.5,0.623
				c0.032,0.289,0.277,0.503,0.561,0.503l0.063-0.004l13.352-1.479C861.358,899.335,861.582,899.054,861.548,898.745z"/>
		</g>
		<g>
			<path fill="#8C4C20" d="M832.928,912.328c0.306-0.06,0.507-0.355,0.447-0.662c-0.061-0.307-0.365-0.512-0.664-0.446
				c-6.158,1.352-12.487,1.846-18.794,1.939c-0.072,0.372-0.141,0.745-0.212,1.117C820.157,914.192,826.598,913.558,832.928,912.328
				z"/>
		</g>
		<g>
			<path fill="#8C4C20" d="M845.162,911.601c-0.312,0-0.565,0.254-0.565,0.565c0,0.311,0.253,0.565,0.565,0.565h5.44
				c0.312,0,0.565-0.254,0.565-0.565c0-0.311-0.253-0.565-0.565-0.565H845.162z"/>
		</g>
		<g>
			<path fill="#8C4C20" d="M843.224,920.348c-0.054-0.309-0.358-0.517-0.654-0.459c-5.308,1.038-10.773,1.305-16.181,1.117
				c-0.292,0.038-0.573,0.234-0.585,0.545c-0.01,0.311,0.234,0.574,0.545,0.585c0.91,0.031,1.821,0.046,2.732,0.046
				c4.583,0,9.174-0.395,13.683-1.181C843.072,920.948,843.279,920.655,843.224,920.348z"/>
		</g>
	</g>
	<g>
		<path fill="#CD8C38" d="M938.812,983.315h-0.031c-5.292-0.294-10.517-4.18-13.312-9.902c-2.579-5.28-3.058-11.328-3.305-16.581
			c-0.527-11.231-0.142-22.621,0.229-33.638l5.024-149.137c0.115-3.396,0.245-7.25,1.871-10.586c1.617-3.321,4.49-5.724,7.268-8.049
			c0.8-0.669,1.6-1.338,2.367-2.027c2.453-2.199,6.428-6.607,5.495-11.396c-0.06-0.307,0.141-0.603,0.447-0.662
			c0.298-0.053,0.603,0.139,0.664,0.446c1.039,5.339-3.22,10.096-5.851,12.456c-0.777,0.696-1.587,1.373-2.397,2.051
			c-2.687,2.248-5.465,4.573-6.978,7.676c-1.52,3.122-1.646,6.845-1.757,10.131c0,0-5.778,171.498-5.254,182.682
			c0.242,5.141,0.708,11.052,3.192,16.14c2.619,5.359,7.469,8.996,12.358,9.266c0.313,0.018,0.551,0.285,0.533,0.596
			C939.359,983.081,939.11,983.315,938.812,983.315z"/>
	</g>
	<g>
		<path fill="#CD8C38" d="M397.229,460.528c-0.172,0-0.342-0.079-0.453-0.227c-5.227-7.004-14.032-12.061-26.172-15.031
			c-4.257-1.042-8.663-1.813-12.923-2.559c-5.827-1.018-11.853-2.074-17.617-3.838c-3.584-1.1-5.52-2.862-5.601-5.101
			c-0.038-1.075,0.335-2.021,1.106-2.809c1.626-1.663,4.648-2.177,6.916-2.195c18.515,0.238,36.886,7.159,51.023,19.114
			c-6.385-9.327-15.309-16.475-23.281-22.861l-2.308-1.844c-3.905-3.118-7.943-6.34-11.771-9.703
			c-0.813-0.713-2.086-1.521-3.434-2.378c-3.851-2.442-8.644-5.485-7.772-9.451c0.431-1.961,1.494-3.228,3.159-3.765
			c7.57-2.44,25.338,11.522,28.521,14.373c10.172,9.111,17.628,21.064,20.993,33.657c0.081,0.303-0.099,0.612-0.401,0.691
			c-0.303,0.079-0.612-0.097-0.692-0.4c-3.308-12.384-10.644-24.14-20.656-33.105c-4.16-3.73-20.926-16.25-27.419-14.139
			c-1.272,0.409-2.058,1.369-2.401,2.93c-0.702,3.193,3.72,6,7.274,8.254c1.386,0.879,2.695,1.711,3.574,2.484
			c3.807,3.343,7.835,6.558,11.73,9.667l2.309,1.844c8.988,7.201,19.175,15.36,25.696,26.562c0.14,0.243,0.083,0.552-0.137,0.727
			c-0.22,0.181-0.532,0.163-0.74-0.029c-14.278-13.41-33.698-21.247-53.283-21.499c-0.049,0-0.098,0-0.148,0
			c-1.939,0-4.601,0.481-5.944,1.855c-0.554,0.568-0.812,1.215-0.784,1.979c0.077,2.162,2.654,3.401,4.802,4.059
			c5.697,1.747,11.688,2.793,17.481,3.807c4.278,0.749,8.703,1.521,12.997,2.573c12.4,3.036,21.42,8.234,26.808,15.455
			c0.187,0.25,0.136,0.605-0.115,0.791C397.465,460.49,397.347,460.528,397.229,460.528z"/>
	</g>
	<g>
		<path fill="#241B14" d="M465.953,993.361c-17.807,0.817-38.364,2.17-58.941,3.081c-23.49,1.04-46.988,1.107-70.381-1.698
			c-7.874-0.944-15.676-2.553-23.472-4.054c-2.451-0.472-4.86-1.401-7.146-2.437c-6.534-2.96-9.811-8.361-10.53-15.289
			c-0.295-2.843-0.073-5.786,0.263-8.643c6.047-51.36,15.313-102.145,27.466-152.403c5.35-22.126,12.142-43.851,18.609-65.665
			c2.053-6.926,4.034-13.874,6.168-20.775c1.604-5.189,3.001-10.408,3.684-15.809c0.131-1.038,0.629-2.033,0.983-3.038
			c0.425-1.203,2.52-1.522,3.651-0.765c2.534,1.696,3.681,4.392,5.132,6.859c0.534,0.908,0.685,2.034,1.124,3.009
			c0.303,0.673,1.004,0.754,1.803,0.333c0.636-0.335,1.317-0.624,1.874-1.064c10.574-8.342,22.373-14.609,34.548-20.181
			c19.41-8.883,39.329-16.399,60.127-21.375c5.258-1.258,10.61-2.173,15.959-2.985c2.475-0.375,5.062-0.324,7.568-0.113
			c4.828,0.408,9.097,2.197,12.445,5.853c3.423,3.739,6.632,7.587,8.773,12.289c1.488,3.269,3.303,6.438,5.333,9.404
			c14.191,20.734,24.425,43.414,32.922,66.928c7.99,22.11,13.917,44.831,19.53,67.635c5.183,21.058,8.979,42.398,12.875,63.714
			c4.351,23.804,13.487,76.472,13.908,78.966c0.366,2.167,1.326,4.029,2.614,5.855c1.585,2.246,1.015,5.027-1.22,6.6
			c-1.442,1.015-3.114,1.962-4.81,2.294c-2.457,0.481-5.027,0.481-7.551,0.507c-16.986,0.172-33.974,0.193-50.957,0.477
			c-9.029,0.151-18.051,0.749-27.077,1.115C490.394,992.425,479.554,992.737,465.953,993.361z"/>
	</g>
	<g>
		<path fill="#8C4C20" d="M800.453,563.646c-0.611,1.673-1.198,3.482-2.284,4.839c-2.713,3.369-5.517,6.716-8.615,9.723
			c-6.761,6.603-14.607,11.781-22.657,16.687c-5.857,3.573-11.668,7.236-17.592,10.695c-5.743,3.346-10.221,7.779-13.861,13.386
			c-10.288,15.761-21.549,30.797-33.375,45.45c-17.275,21.413-35.862,41.629-55.512,60.871c-4.115,4.047-8.547,7.824-13.07,11.396
			c-3.098,2.442-6.58,4.432-9.995,6.467c-7.213,4.341-18.7,3.595-25.823-4.183c-1.47-1.583-2.917-3.211-4.183-4.975
			c-2.329-3.211-4.816-6.376-6.671-9.859c-7.643-14.381-16.62-27.971-24.579-42.149c-3.392-6.06-6.58-12.21-9.61-18.451
			c-1.583-3.188-3.098-6.377-4.568-9.61c-1.899-4.183-13.522-29.079-17.434-37.332c-3.573-7.507-6.557-15.263-9.361-23.087
			c-0.475-1.334-0.95-2.736-0.113-4.138c0.52-0.859,1.651,0.452,2.94,3.482c0.407,0.995,0.769,2.035,1.153,3.053
			c5.54,14.336,12.211,28.152,18.836,42.013c0.837,1.809,1.696,3.595,2.555,5.404c0.905,1.922,2.125,3.731,3.369,5.495
			c0.317,0.43,1.266,0.475,1.967,0.543c0.294,0.045,0.678-0.204,0.972-0.407c10.56-6.964,20.916-14.245,30.707-22.295
			c1.922-1.583,3.595-3.505,5.246-5.382c0.045-0.045,0.09-0.113,0.113-0.181c0.091-0.113,0.158-0.272,0.204-0.43l0.023-0.045
			c0.136-0.475,0.136-1.018-0.023-1.357c-1.379-2.917-2.804-5.856-4.477-8.638c-0.52-0.859-1.04-1.741-1.583-2.6
			c-7.462-12.459-14.992-24.851-22.476-37.31c-0.113-0.181,0.045-0.678,0.249-0.859c0.181-0.136,0.678-0.181,0.859-0.045
			c3.234,2.442,5.223,5.924,7.417,9.203c6.49,9.701,12.821,19.537,18.813,29.554c1.018,1.651,2.013,3.324,2.985,5.02
			c1.899,3.211,21.527,38.87,29.531,53.432c1.04,1.877,2.261,3.663,3.573,5.359c0.317,0.407,1.379,0.633,1.899,0.407
			c0.972-0.385,1.877-1.063,2.646-1.786c26.75-25.551,55.738-48.276,86.219-69.147c3.934-2.713,7.507-5.698,10.198-9.61
			c4.884-7.01,11.69-10.424,19.966-11.645c13.024-1.945,25.031-6.874,36.496-13.183c5.698-3.121,11.442-6.128,17.75-7.711
			C800.431,560.842,800.996,562.176,800.453,563.646z"/>
	</g>
	<g>
		<path fill="#241B14" d="M590.999,613.596c-0.023,2.058-0.724,4.5-1.764,7.033l-0.023,0.045c-0.068,0.135-0.113,0.271-0.204,0.43
			c-2.374,5.54-6.354,11.419-8.638,14.471c-7.892,10.583-16.529,21.255-27.745,27.971c-1.583-3.188-3.098-6.377-4.568-9.61
			c-1.899-4.183-3.821-8.367-5.789-12.55c0.543-1.198,1.153-2.352,1.809-3.46c2.533-4.319,5.879-8.163,9.497-11.645
			c3.776-3.641,7.892-6.942,12.052-10.153c4.093-3.166,8.389-6.331,13.432-7.462c1.538-0.339,2.894-0.565,4.093-0.633
			c2.08-0.181,3.676,0.046,4.861,0.543C590.167,609.478,591.021,611.267,590.999,613.596z"/>
	</g>
	<g>
		<path fill="#8C4C20" d="M452.094,435.821c-2.239,9.384-1.832,18.813-0.678,28.175c2.6,20.577,2.058,41.063-0.927,61.504
			c-0.995,6.761-2.713,13.431-4.387,20.079c-0.791,3.12-2.148,6.128-3.505,9.045c-0.904,1.945-2.126,3.799-3.505,5.45
			c-4.545,5.517-10.469,6.535-16.303,2.578c-2.668-1.786-5.11-4.025-7.304-6.399c-5.201-5.608-8.909-12.211-11.984-19.175
			c-3.98-8.977-6.49-18.406-8.027-28.016c-1.379-8.547-2.736-17.095-2.872-25.8c-0.136-8.751,1.289-17.253,3.369-25.665
			c2.849-11.555,12.324-48.593,14.065-55.58c0.452-1.786,1.153-3.437,2.827-4.726c0.43,0.972,0.769,1.99,1.334,2.849
			c0.294,0.43,1.359,0.929,1.515,0.791c1.353-1.199,2.487-2.6,3.754-3.867c2.035-2.035,3.957-4.228,6.218-5.992
			c6.467-5.088,14.087-4.997,20.306,1.673c3.03,3.256,5.088,7.032,6.377,11.193c0.995,3.279,1.719,6.603,2.012,9.994
			c0.249,2.691,0.203,5.427-0.158,8.186c-0.588,4.273-0.859,8.66-1.922,12.821C452.229,435.233,452.161,435.527,452.094,435.821z"/>
	</g>
	<g>
		<path fill="#241B14" d="M454.219,422.118c-0.588,4.273-0.859,8.66-1.922,12.821c-0.068,0.294-0.136,0.588-0.204,0.882
			c-7.937-0.452-15.76-3.143-22.25-7.733c-5.224-3.685-15.987-13.499-15.308-20.803c0.814-8.796,15.15-6.829,20.893-4.816
			c5.563,1.967,10.537,5.291,15.308,8.728c1.221,0.882,2.442,1.786,3.64,2.736C454.626,416.623,454.581,419.359,454.219,422.118z"/>
	</g>
	<g>
		<path fill="#8C4C20" d="M509.695,331.536c-0.032,0.058-0.064,0.116-0.097,0.174c-5.275,9.366-12.284,15.868-13.118,27.388
			c-0.249,3.437-0.09,6.761,0,10.085c0.113,3.505,0.127,7-0.271,10.605c-0.112,1.015-0.271,2.035-0.475,3.052
			c-3.414,15.942-13.183,29.825-26.727,38.802c-6.693,4.432-13.658,6.919-21.685,7.123c-16.168,0.43-34.483-10.763-41.674-23.313
			c-2.51-4.387-5.043-8.773-7.191-13.341c-1.877-4.048-4.025-7.62-8.276-9.587c-1.266-0.588-2.397-1.583-3.505-2.488
			c-5.834-4.793-9.339-11.034-10.809-18.293c-2.397-11.826,6.377-25.167,19.492-26.456c6.829-0.678,12.889,0.678,18.18,5.11
			c0.814,0.678,2.261,0.339,2.894-0.475c0.656-0.836,1.357-1.673,1.967-2.555c1.244-1.786,2.42-3.618,3.686-5.359
			c13.344-18.14,32.881-32.433,49.602-47.535c3.515-3.174,7.875-6.583,12.475-5.457c2.792,0.684,4.898,2.913,6.822,5.049
			c5.727,6.357,11.399,12.89,15.386,20.461C510.361,312.101,514.122,323.419,509.695,331.536z"/>
	</g>
	<g>
		<path fill="#FEA501" d="M596.607,613.528c-0.611,2.849-2.126,4.455-3.708,5.902c-17.931,16.507-37.265,30.956-59.809,40.656
			c-2.329,0.995-4.703,1.786-6.557,3.64c-1.379,1.357-3.211,1.583-5.065,1.379c-1.425-0.136-2.917-0.181-4.274-0.633
			c-10.65-3.595-21.459-2.713-32.177-0.723c-15.308,2.826-30.029,7.869-44.523,13.522c-13.477,5.223-26.637,11.193-39.639,17.524
			c-13.974,6.806-28.062,13.386-42.646,18.79c-1.696,0.633-3.369,1.312-5.065,1.922c-4.387,1.583-6.557,0.52-8.095-4.183
			c-1.56-4.816-2.849-9.723-4.477-14.494c-1.198-3.505-2.465-6.987-3.889-10.379c-0.384-0.927-0.792-1.854-1.198-2.759
			c-1.945-4.228-2.578-4.59-7.643-3.912c-3.934,0.52-7.914,0.701-11.849,1.244c-7.575,1.017-15.15,0.995-22.748,0.316
			c-5.042-0.452-10.085-0.791-15.127-1.198c-7.959-0.678-15.783-2.058-23.471-4.138c-1.719-0.475-3.414-1.176-4.997-1.968
			c-2.804-1.402-4.545-3.685-4.477-6.874c0.113-4.681,0.43-9.384,0.769-14.065c0.339-4.681,0.927-9.361,1.266-14.042
			c1.583-23.087,5.178-74.326,5.472-76.858c0.995-8.593,2.6-17.095,5.223-25.416c1.651-5.178,3.686-10.198,6.286-14.969
			c3.844-7.1,8.932-13.137,15.263-18.135c7.123-5.653,14.946-10.153,23.268-13.771c4.635-2.013,9.406-3.731,14.132-5.517
			c17.615-6.625,34.822-14.11,51.6-22.612c0.136-0.068,0.249-0.136,0.384-0.204c4.387-2.239,8.615-4.748,12.844-7.236
			c8.66-5.11,11.736-14.63,20.6-19.74c-0.814,4.296-1.131,8.728-2.035,12.957c-0.724,3.347-0.158,6.535,1.334,9.474
			c1.809,3.528,3.799,6.987,5.992,10.289c2.193,3.324,4.568,6.535,7.1,9.587c1.515,1.809,2.826,3.686,3.957,5.63
			c2.872,4.861,4.703,10.175,5.856,15.828c1.764,8.57,3.686,16.846,4.59,25.506c0.905,8.706,0.724,17.773,4.341,25.936
			c0.158-9.203-0.43-18.316-0.656-27.496c-0.226-8.185,0.588-16.574,0.837-24.805c0.136-4.07-0.43-8.231-0.136-12.211
			c0.045-0.814,0.181-1.628,0.339-2.42c0.904-4.07,3.188-7.892,5.178-11.464c5.404-9.768,9.633-20.147,12.595-30.888
			c3.12,4.41,5.879,9.09,8.253,13.952c1.99,4.138,3.618,5.201,6.806,6.49c0.972,0.384,2.103,0.814,3.414,1.334
			c17.117,6.896,33.873,14.517,50.447,22.589c1.289,0.633,2.578,1.424,3.957,1.764c5.201,1.334,8.954,4.726,11.962,8.841
			c4.274,5.834,8.434,11.781,12.256,17.909c8.231,13.206,15.06,27.18,21.685,41.244c7.078,15.06,13.952,30.187,20.803,45.337
			C593.237,604.574,594.933,609.322,596.607,613.528z"/>
	</g>
	<g>
		<g>
			<path fill="#F8CE7D" d="M582.194,628.82c-3.577-4.075-8.656-6.844-14.483-7.354c-12.008-1.051-22.592,7.832-23.642,19.838
				l19.59,1.714C570.061,638.617,576.215,633.848,582.194,628.82z"/>
		</g>
		<g>
			<path fill="#F8CE7D" d="M571.514,577.985c3.192,0.279,6.276-0.161,9.115-1.159c-3.391-7.406-15.694-33.58-18.531-39.214
				c-5.729,3.487-9.793,9.538-10.423,16.731C550.626,566.353,559.507,576.935,571.514,577.985z"/>
		</g>
		<g>
			<path fill="#F8CE7D" d="M591.478,600.726c-0.039,0.301-0.098,0.596-0.125,0.901c-0.479,5.471,1.12,10.633,4.12,14.745
				c0.478-0.809,0.891-1.709,1.134-2.845C595.023,609.548,593.408,605.084,591.478,600.726z"/>
		</g>
		<g>
			<path fill="#F8CE7D" d="M524.23,617.662c12.004,1.051,22.591-7.828,23.642-19.838c1.05-12.006-7.834-22.592-19.838-23.642
				c-12.008-1.051-22.592,7.832-23.642,19.838C503.341,606.029,512.222,616.611,524.23,617.662z"/>
		</g>
		<g>
			<path fill="#F8CE7D" d="M552.581,519.934c-1.274-2.194-2.568-4.376-3.912-6.532c-3.821-6.128-7.982-12.074-12.256-17.909
				c-2.29-3.135-5.019-5.842-8.485-7.548c-8.527,2.361-15.112,9.781-15.929,19.113c-1.051,12.01,7.83,22.592,19.838,23.642
				C540.529,531.461,548.457,527.003,552.581,519.934z"/>
		</g>
		<g>
			<path fill="#F8CE7D" d="M500.588,637.5c0.459-5.253-0.983-10.234-3.755-14.263c-0.792-1.151-1.693-2.225-2.689-3.205
				c-0.498-0.49-1.02-0.957-1.564-1.398c-1.632-1.324-3.464-2.42-5.451-3.234c-1.986-0.814-4.127-1.346-6.378-1.543l-1.902,21.74
				L500.588,637.5z"/>
		</g>
		<g>
			<path fill="#F8CE7D" d="M508.196,550.539c1.05-12.006-7.834-22.592-19.838-23.642l-3.804,43.48
				C496.558,571.427,507.145,562.549,508.196,550.539z"/>
		</g>
		<g>
			<path fill="#F8CE7D" d="M492.162,483.416c1.5,0.131,2.979,0.107,4.419-0.059c2.881-0.331,5.61-1.23,8.06-2.59
				c0.613-0.34,1.207-0.709,1.783-1.105c0.418-0.287,0.813-0.604,1.21-0.92c-4.806-2.253-9.637-4.449-14.485-6.609L492.162,483.416z
				"/>
		</g>
		<g>
			<path fill="#F8CE7D" d="M526.532,663.727c0.285-0.285,0.601-0.504,0.908-0.743c-2.166-0.971-4.517-1.622-7.014-1.841
				c-3.638-0.318-7.139,0.287-10.29,1.603c2.358,0.393,4.712,0.936,7.058,1.727c1.357,0.452,2.849,0.497,4.274,0.633
				C523.321,665.309,525.153,665.083,526.532,663.727z"/>
		</g>
		<g>
			<path fill="#F8CE7D" d="M544.068,641.304c-0.197,2.252-0.045,4.453,0.412,6.551c0.152,0.699,0.338,1.387,0.556,2.061
				c0.401,1.24,0.923,2.428,1.531,3.565c5.896-3.194,11.591-6.684,17.091-10.464L544.068,641.304z"/>
		</g>
		<g>
			<path fill="#F8CE7D" d="M500.588,637.5l-21.74-1.902l-1.902,21.74c1.5,0.131,2.979,0.108,4.419-0.058
				c2.161-0.249,4.236-0.816,6.172-1.659c0.645-0.281,1.275-0.592,1.888-0.932c3.675-2.04,6.722-5.118,8.714-8.875
				c0.996-1.879,1.728-3.927,2.143-6.101C500.419,638.989,500.522,638.251,500.588,637.5z"/>
		</g>
		<g>
			<path fill="#F8CE7D" d="M400.326,453.475c-0.436-1.904-0.524-3.877-0.082-5.919c0.905-4.229,1.221-8.661,2.035-12.957
				c-7.445,4.292-10.818,11.687-16.835,16.975c-0.023,0.198-0.064,0.391-0.082,0.591L400.326,453.475z"/>
		</g>
		<g>
			<path fill="#F8CE7D" d="M413.627,629.892c1.05-12.006-7.834-22.592-19.838-23.642c-6.004-0.525-11.652,1.433-15.93,5.023
				c-2.139,1.795-3.936,3.998-5.264,6.503c-1.328,2.505-2.186,5.311-2.449,8.313L413.627,629.892z"/>
		</g>
		<g>
			<path fill="#F8CE7D" d="M478.848,635.598l1.902-21.74c-0.75-0.066-1.495-0.092-2.233-0.082c-1.475,0.021-2.919,0.19-4.318,0.494
				c-0.699,0.152-1.387,0.338-2.061,0.556c-2.697,0.873-5.179,2.26-7.318,4.055c-4.278,3.59-7.187,8.812-7.712,14.815
				L478.848,635.598z"/>
		</g>
		<g>
			
				<ellipse transform="matrix(0.2771 -0.9608 0.9608 0.2771 -231.0439 774.9721)" fill="#F8CE7D" cx="399.495" cy="541.029" rx="21.823" ry="21.823"/>
		</g>
		<g>
			<path fill="#F8CE7D" d="M481.807,527.309c-3.496,0.761-6.706,2.367-9.379,4.611c-2.139,1.795-3.936,3.998-5.264,6.503
				c-0.664,1.252-1.21,2.58-1.624,3.97c-0.413,1.39-0.694,2.842-0.825,4.342c-0.131,1.501-0.108,2.981,0.058,4.421
				c0.332,2.881,1.231,5.61,2.591,8.06c3.061,5.512,8.456,9.611,14.976,10.854c0.724,0.138,1.463,0.241,2.213,0.307l3.804-43.48
				C486.106,526.7,483.905,526.852,481.807,527.309z"/>
		</g>
		<g>
			<path fill="#F8CE7D" d="M437.269,610.054c12.004,1.05,22.592-7.829,23.642-19.839c1.05-12.006-7.834-22.592-19.838-23.642
				c-12.008-1.051-22.592,7.832-23.642,19.838C416.38,598.421,425.261,609.003,437.269,610.054z"/>
		</g>
		<g>
			<path fill="#F8CE7D" d="M354.112,558.965c-12.008-1.051-22.592,7.832-23.642,19.838c-1.051,12.01,7.83,22.592,19.838,23.642
				c12.004,1.05,22.592-7.829,23.642-19.838C375.001,570.601,366.116,560.015,354.112,558.965z"/>
		</g>
		<g>
			<path fill="#F8CE7D" d="M424.99,500.784c-0.093,3.455,0.621,6.76,1.995,9.724C426.355,507.278,425.672,504.043,424.99,500.784z"
				/>
		</g>
		<g>
			<path fill="#F8CE7D" d="M468.519,503.255c1.05-12.006-7.834-22.592-19.838-23.642c-5.608-0.491-10.889,1.205-15.05,4.353
				c-0.068,0.441-0.14,0.882-0.17,1.33c-0.294,3.98,0.271,8.141,0.136,12.211c-0.206,6.814-0.767,13.73-0.836,20.556
				c3.314,2.785,7.477,4.625,12.117,5.031C456.881,524.143,467.469,515.264,468.519,503.255z"/>
		</g>
		<g>
			
				<ellipse transform="matrix(0.9646 -0.2639 0.2639 0.9646 -117.5436 112.4592)" fill="#F8CE7D" cx="359.818" cy="493.744" rx="21.823" ry="21.823"/>
		</g>
		<g>
			<path fill="#F8CE7D" d="M326.607,617.864c-0.332-2.881-1.231-5.61-2.592-8.06c-0.34-0.612-0.709-1.208-1.105-1.783
				c-0.792-1.151-1.693-2.225-2.689-3.205c-0.498-0.49-1.02-0.957-1.564-1.398c-1.632-1.324-3.464-2.419-5.451-3.233
				c-1.986-0.814-4.128-1.346-6.378-1.543l-1.902,21.74l21.74,1.902C326.797,620.783,326.773,619.305,326.607,617.864z"/>
		</g>
		<g>
			<path fill="#F8CE7D" d="M334.274,535.323c1.05-12.006-7.834-22.592-19.838-23.642l-3.804,43.48
				C322.636,556.211,333.223,547.333,334.274,535.323z"/>
		</g>
		<g>
			<path fill="#F8CE7D" d="M385.362,452.166c-0.066,0.751-0.092,1.496-0.082,2.233c0.113,8.112,4.719,15.31,11.607,18.961
				c2.505,1.327,5.311,2.186,8.313,2.448c1.5,0.131,2.979,0.108,4.419-0.058c1.221-0.141,2.407-0.404,3.564-0.74
				c-1.969-2.485-3.863-5.039-5.613-7.691c-2.193-3.301-4.183-6.761-5.992-10.289c-0.582-1.146-0.974-2.34-1.252-3.555
				L385.362,452.166z"/>
		</g>
		<g>
			<path fill="#F8CE7D" d="M472.32,463.243c0.022,0.317,0.025,0.638,0.061,0.952c0.083,0.72,0.201,1.431,0.353,2.13
				c0.152,0.699,0.338,1.387,0.556,2.061c0.436,1.349,1.001,2.644,1.681,3.868c0.34,0.612,0.709,1.208,1.105,1.783
				c0.396,0.576,0.819,1.132,1.268,1.667c1.795,2.139,3.998,3.936,6.503,5.263c1.252,0.664,2.58,1.21,3.97,1.624
				c1.39,0.413,2.842,0.694,4.343,0.825l0.987-11.283C486.258,469.062,479.318,466.094,472.32,463.243z"/>
		</g>
		<g>
			<path fill="#F8CE7D" d="M386.18,693.211c-11.591-1.014-21.828,7.237-23.472,18.609c11.486-4.47,22.697-9.584,33.798-14.936
				C393.53,694.865,390.018,693.546,386.18,693.211z"/>
		</g>
		<g>
			<path fill="#F8CE7D" d="M453.21,672.545c-1.251-9.985-9.315-18.098-19.744-19.011c-12.008-1.051-22.592,7.832-23.642,19.838
				c-0.493,5.636,1.221,10.942,4.399,15.112c8.653-3.981,17.389-7.77,26.272-11.213C444.709,675.627,448.947,674.046,453.21,672.545
				z"/>
		</g>
		<g>
			<path fill="#F8CE7D" d="M366.342,669.568c1.05-12.006-7.834-22.592-19.838-23.642c-12.008-1.051-22.592,7.832-23.642,19.838
				c-0.456,5.212,0.963,10.152,3.692,14.164c0.429-0.049,0.859-0.09,1.287-0.147c5.065-0.678,5.698-0.317,7.643,3.912
				c0.407,0.904,0.814,1.832,1.198,2.759c0.247,0.589,0.467,1.194,0.705,1.788c1.683,0.589,3.454,1.004,5.313,1.167
				C354.704,690.457,365.292,681.578,366.342,669.568z"/>
		</g>
		<g>
			<path fill="#F8CE7D" d="M381.671,647.282c2.505,1.327,5.311,2.186,8.313,2.449c1.501,0.131,2.979,0.107,4.419-0.058
				c9.362-1.077,17.12-8.148,18.916-17.566c0.138-0.725,0.241-1.463,0.307-2.214l-43.481-3.804c-0.066,0.75-0.092,1.496-0.082,2.233
				C370.177,636.433,374.783,643.631,381.671,647.282z"/>
		</g>
		<g>
			<path fill="#F8CE7D" d="M457.107,633.696c-0.066,0.751-0.092,1.495-0.082,2.233c0.01,0.738,0.058,1.468,0.141,2.188
				c0.083,0.72,0.201,1.431,0.353,2.131c0.152,0.699,0.338,1.387,0.556,2.062c0.436,1.349,1.001,2.643,1.681,3.868
				c0.34,0.612,0.709,1.207,1.105,1.783c0.396,0.576,0.819,1.132,1.268,1.666c1.795,2.139,3.998,3.935,6.503,5.263
				c1.879,0.995,3.927,1.727,6.1,2.142c0.724,0.138,1.463,0.241,2.213,0.306l1.902-21.74L457.107,633.696z"/>
		</g>
		<g>
			<path fill="#F8CE7D" d="M303.023,642.122c1.5,0.131,2.979,0.108,4.419-0.058c2.161-0.249,4.236-0.816,6.172-1.659
				c0.645-0.281,1.275-0.592,1.888-0.932c3.675-2.04,6.722-5.118,8.714-8.875c0.996-1.879,1.728-3.927,2.143-6.101
				c0.138-0.724,0.241-1.463,0.307-2.213l-21.74-1.902L303.023,642.122z"/>
		</g>
		<g>
			<path fill="#F8CE7D" d="M306.828,598.642c-0.751-0.066-1.495-0.092-2.233-0.082c-1.475,0.021-2.919,0.19-4.318,0.494
				c-0.699,0.152-1.387,0.338-2.061,0.556c-2.697,0.873-5.179,2.26-7.318,4.055c-2.139,1.795-3.936,3.998-5.264,6.503
				c-1.328,2.505-2.186,5.311-2.449,8.313l21.74,1.902L306.828,598.642z"/>
		</g>
		<g>
			<path fill="#F8CE7D" d="M307.885,512.093c-3.496,0.761-6.706,2.367-9.379,4.611c-2.139,1.795-3.936,3.998-5.264,6.503
				c-0.664,1.252-1.21,2.58-1.624,3.97c-0.413,1.39-0.694,2.842-0.825,4.342c-0.394,4.504,0.609,8.807,2.649,12.481
				c1.7,3.063,4.121,5.689,7.055,7.631c1.174,0.777,2.429,1.445,3.754,1.987c1.324,0.542,2.718,0.96,4.167,1.236
				c0.724,0.138,1.463,0.241,2.213,0.307l3.804-43.48C312.184,511.484,309.983,511.636,307.885,512.093z"/>
		</g>
		<g>
			<path fill="#F8CE7D" d="M267.151,551.357c-4.887-0.428-9.524,0.811-13.392,3.215c-0.414,2.534-0.785,5.075-1.08,7.627
				c-0.294,2.533-0.543,5.065-0.746,7.598c-0.506,6.453-0.971,12.911-1.418,19.37c3.42,3.14,7.849,5.235,12.833,5.671
				c12.004,1.05,22.592-7.829,23.642-19.838C288.04,562.993,279.155,552.407,267.151,551.357z"/>
		</g>
		<g>
			<path fill="#F8CE7D" d="M292.87,494.812c-4.683,2.601-9.187,5.509-13.419,8.867c-1.67,1.318-3.241,2.719-4.738,4.182
				C282.769,507.181,289.718,502.084,292.87,494.812z"/>
		</g>
		<g>
			<path fill="#F8CE7D" d="M279.381,661.96c1.05-12.006-7.834-22.592-19.838-23.642c-4.516-0.395-8.829,0.616-12.511,2.668
				c-0.343,4.037-0.8,8.075-1.092,12.113c-0.339,4.681-0.656,9.384-0.769,14.065c-0.068,3.189,1.673,5.472,4.477,6.874
				c1.583,0.792,3.279,1.492,4.997,1.968c4.583,1.24,9.22,2.2,13.9,2.942C274.494,675.505,278.737,669.328,279.381,661.96z"/>
		</g>
		<g>
			<path fill="#F8CE7D" d="M283.185,618.48c-0.066,0.751-0.092,1.496-0.082,2.233c0.051,3.687,1.031,7.186,2.731,10.248
				c1.7,3.062,4.121,5.688,7.055,7.631c0.587,0.389,1.194,0.75,1.82,1.081c0.626,0.332,1.271,0.634,1.933,0.906
				c1.325,0.542,2.718,0.96,4.167,1.236c0.724,0.138,1.463,0.241,2.213,0.306l1.902-21.74L283.185,618.48z"/>
		</g>
	</g>
	<g>
		<path fill="#FEA501" d="M414.671,476.907c1.515,1.809,2.826,3.686,3.957,5.63c-0.701,0.158-1.395,0.506-1.967,0.95
			c-1.609,1.246-2.623,3.098-3.55,4.93c-4.002,7.914-7.598,16.032-10.741,24.33c-0.271,0.678-0.543,1.402-1.131,1.831
			c-1.334,0.995-3.188-0.068-4.387-1.176c-3.708-3.392-6.58-7.552-9.203-11.849c-6.173-10.153-10.967-21.097-15.738-31.973
			c-1.153-2.646-2.08-5.359-3.075-8.005c4.387-2.239,8.615-4.748,12.844-7.236c8.66-5.11,11.736-14.63,20.6-19.74
			c-0.814,4.296-1.131,8.728-2.035,12.957c-0.724,3.347-0.158,6.535,1.334,9.474c1.809,3.528,3.799,6.987,5.992,10.289
			C409.764,470.643,412.138,473.854,414.671,476.907z"/>
	</g>
	<g>
		<path fill="#FEA501" d="M466.746,483.577c-0.723,9.881-3.46,19.469-6.15,29.011c-0.724,2.487-1.447,4.997-2.646,7.304
			c-9.339-9.995-13.748-23.494-20.419-35.433c-0.362-0.656-0.769-1.357-1.425-1.719c-0.746-0.407-1.56-0.294-2.306,0.136
			c0.904-4.07,3.188-7.892,5.178-11.464c5.404-9.768,9.633-20.147,12.595-30.888c3.12,4.41,5.879,9.09,8.253,13.952
			c1.99,4.138,3.618,5.201,6.806,6.49c0.068,2.849,0.136,5.676,0.204,8.525C466.972,474.171,467.085,478.874,466.746,483.577z"/>
	</g>
	<g>
		<g>
			<path fill="#CD8C38" d="M402.87,513.012c5.041-7.411,7.815-15.877,9.691-22.51c0.357-1.263,0.725-2.57,1.47-3.599
				c0.771-1.062,1.727-1.53,2.912-1.462c1.293,0.088,2.737,0.854,4.128,1.907c-0.293-0.673-0.614-1.334-0.939-1.993
				c-1.035-0.579-2.089-0.971-3.113-1.04c-1.59-0.117-2.899,0.539-3.904,1.926c-0.861,1.19-1.258,2.597-1.665,4.037
				c-1.829,6.468-4.563,14.824-9.513,22.1c-0.952,1.4-2.871,3.772-5.037,3.939c-1.046,0.093-2.061-0.389-3.009-1.4
				c-2.561-2.734-5.052-6.035-7.84-10.387c-4.347-6.788-8.075-14.495-11.4-23.561c-2.352-6.415-4.095-13-5.329-19.659
				c-0.293,0.151-0.574,0.322-0.869,0.471c-0.058,0.029-0.117,0.056-0.175,0.085c1.244,6.601,2.979,13.13,5.311,19.491
				c3.353,9.146,7.118,16.926,11.51,23.782c2.825,4.412,5.357,7.764,7.966,10.551c1.1,1.175,2.306,1.767,3.593,1.767
				c0.109,0,0.22-0.004,0.33-0.011C399.624,517.239,401.804,514.578,402.87,513.012z"/>
		</g>
		<g>
			<path fill="#CD8C38" d="M444.132,497.729c1.512,4.405,3.075,8.963,5.158,13.318c0.756,1.583,3.422,6.775,5.944,7.177
				c1.849,0.307,3.478-1.232,4.448-4.2c5.574-17.016,7.863-35.248,6.734-53.151c-0.424-0.174-0.808-0.347-1.181-0.523
				c1.21,17.951-1.037,36.253-6.629,53.321c-0.288,0.881-1.362,3.778-3.196,3.436c-1.464-0.232-3.671-3.557-5.101-6.545
				c-2.056-4.299-3.608-8.824-5.11-13.198c-0.931-2.714-1.894-5.52-2.971-8.261c-0.744-1.892-1.589-4.037-3.204-5.593
				c-0.285-0.276-0.64-0.572-1.106-0.689c-0.708-0.174-1.457,0.102-2.247,0.813c-0.926,0.839-1.651,1.831-2.245,2.865
				c-0.03,0.876-0.046,1.754-0.025,2.642c0.698-1.655,1.608-3.38,3.029-4.668c0.339-0.305,0.835-0.653,1.217-0.552
				c0.207,0.055,0.416,0.232,0.594,0.402c1.438,1.389,2.234,3.412,2.937,5.196C442.246,492.233,443.205,495.029,444.132,497.729z"/>
		</g>
		<g>
			<path fill="#CD8C38" d="M434.035,598.494h0.025c0.3,0,0.551-0.236,0.564-0.539c0.757-16.716-1.03-33.607-2.759-49.943
				c-0.147-1.384-0.291-2.769-0.436-4.153c-1.595-6.499-1.665-13.347-2.355-19.988c-0.269-2.578-0.646-5.117-1.065-7.645
				c0.354,7.944,1.072,15.917,2.026,25.183c0.231,2.241,0.468,4.48,0.704,6.722c1.725,16.294,3.508,33.141,2.756,49.771
				C433.482,598.216,433.723,598.478,434.035,598.494z"/>
		</g>
		<g>
			<path fill="#CD8C38" d="M529.057,631.986l-0.107,0.048c-0.078,0.038-0.161,0.055-0.244,0.055c-0.21,0-0.413-0.119-0.51-0.32
				c-0.135-0.283-0.016-0.62,0.266-0.755l0.904-0.433c1.71-7.987,3.175-19.1-0.995-28.71c-0.251-0.576-1.012-2.334-2.596-2.447
				c-0.634-0.057-1.19,0.161-1.64,0.601c-0.935,0.91-1.206,2.623-1.146,3.926l0.097,2.08c0.613,12.896,1.245,26.216-5.511,36.524
				l-2.863-20.759c-1.672-12.13-3.567-25.876-10.694-37.02c-0.168-0.263-0.518-0.34-0.781-0.172c-0.263,0.17-0.34,0.519-0.171,0.782
				c6.993,10.935,8.87,24.551,10.526,36.566l3.062,22.199c0.031,0.227,0.199,0.415,0.422,0.47c0.221,0.051,0.458-0.026,0.595-0.214
				c7.857-10.783,7.19-24.836,6.544-38.427l-0.098-2.08c-0.047-1.051,0.184-2.46,0.806-3.063c0.221-0.216,0.461-0.313,0.77-0.285
				c0.596,0.054,1.149,0.638,1.64,1.771c4.289,9.884,2.409,21.523,0.622,29.418c-1.86,8.219-4.452,16.327-7.702,24.102
				c-0.12,0.289,0.016,0.62,0.303,0.74c0.072,0.031,0.146,0.044,0.219,0.044c0.221,0,0.431-0.13,0.521-0.347
				C524.571,648.441,527.183,640.265,529.057,631.986L529.057,631.986z"/>
		</g>
		<g>
			<path fill="#CD8C38" d="M246.122,651.085c-0.032,0.369-0.071,0.738-0.1,1.107c18.432,6.279,37.73,9.52,57.146,9.52
				c7.8,0,15.619-0.542,23.402-1.579c-0.076-0.37-0.153-0.738-0.229-1.107C299.301,662.609,271.843,659.89,246.122,651.085z"/>
		</g>
		<g>
			<path fill="#CD8C38" d="M328.674,659.866c0.308-0.044,0.522-0.331,0.478-0.64c-0.045-0.309-0.335-0.528-0.641-0.477
				c-0.347,0.058-0.697,0.085-1.044,0.134c0.077,0.369,0.153,0.738,0.229,1.108C328.021,659.945,328.348,659.914,328.674,659.866z"
				/>
		</g>
		<g>
			<path fill="#CD8C38" d="M528.196,631.769c0.097,0.201,0.3,0.32,0.51,0.32c0.083,0,0.166-0.018,0.244-0.055l18.564-8.901
				c5.052-2.422,10.277-4.924,15.15-7.965c8.929-5.57,17.254-13.354,24.855-23.189c-0.178-0.392-0.356-0.783-0.534-1.175
				c-7.616,9.954-15.961,17.82-24.919,23.406c-4.82,3.005-10.015,5.496-15.04,7.903l-18.564,8.901
				C528.181,631.149,528.061,631.487,528.196,631.769z"/>
		</g>
		<g>
			<path fill="#CD8C38" d="M351.37,640.909c-0.375-0.662-0.898-1.078-1.55-1.228c-0.998-0.238-1.947-0.066-2.82,0.501
				c-3.336,2.149-4.865,9.778-5.778,14.336c-0.224,1.122-0.418,2.091-0.577,2.643c-2.041,7.104-3.515,14.397-4.858,21.563
				c-1.328-21.824-4.22-43.7-8.61-65.1c-0.883-4.306-2.189-8.552-5.747-10.465c-0.157-0.088-0.349-0.093-0.51-0.013
				c-0.163,0.077-0.279,0.227-0.312,0.404c-2.991,15.742,0.538,31.743,3.952,47.218c0.603,2.733,1.936,8.995,2.011,9.365
				c1.315,6.438,2.409,12.95,2.866,19.46c0.42-0.04,0.782-0.056,1.129-0.065c-0.459-6.547-1.554-13.083-2.871-19.538
				c-0.076-0.37-1.422-6.7-2.032-9.465c-3.33-15.097-6.771-30.698-4.093-45.953c2.65,1.868,3.733,5.545,4.498,9.277
				c4.621,22.523,7.568,45.575,8.785,68.535c0.199,0.391,0.405,0.818,0.63,1.308c0.042,0.094,0.082,0.192,0.125,0.286
				c0.214-0.045,0.391-0.194,0.433-0.417c1.584-8.603,3.223-17.5,5.691-26.088c0.172-0.598,0.361-1.541,0.6-2.736
				c0.82-4.094,2.348-11.717,5.282-13.607c0.615-0.395,1.253-0.512,1.951-0.351c0.338,0.08,0.606,0.303,0.823,0.685
				c1.708,3.016-0.34,14.124-5.617,30.478c0,0-4.192,12.675-6.359,18.894c0.207,0.548,0.413,1.095,0.615,1.646
				c2.328-6.648,6.819-20.193,6.819-20.193C349.703,660.335,353.793,645.186,351.37,640.909z"/>
		</g>
	</g>
	<g>
		<path fill="#FFFFFF" d="M562.23,824.315c-1.987-8.435-4.541-16.737-6.482-25.182c-1.545-6.721-3.604-13.256-6.105-19.646
			c-3.292-8.411-6.865-16.712-10.265-25.081c-1.903-4.682-3.792-9.373-5.522-14.12c-1.856-5.09-3.385-10.302-5.287-15.374
			c-10.922-29.123-19.777-58.901-28.355-88.772c-1.808-6.297-2.921-12.677-3.554-19.152c-0.879-8.992-1.649-17.996-2.32-27.006
			c-0.646-8.668-2.015-17.231-3.608-25.755c-3.251-17.401-6.526-34.8-10.003-52.156c-2.557-12.761-5.593-25.418-10.649-37.476
			c-1.082-2.58-2.286-5.111-3.531-7.619c0.002,0.108,0.004,0.217,0.006,0.326c0.309,3.215,0.527,6.431,0.167,9.675
			c-0.004,0.037-0.016,0.068-0.021,0.105c2.678,7.654,4.947,15.44,6.675,23.409c4.756,21.937,7.763,44.116,9.506,66.481
			c0.504,6.473-0.882,6.596-4.789,8.383c-2.95,1.349-5.988,2.553-9.077,3.544c-17.656,5.663-35.654,9.259-54.316,8.662
			c-3.252-0.104-6.512-0.041-9.759-0.227c-8.312-0.476-16.499-1.863-24.636-3.582c-2.374-0.502-3.933-1.852-4.228-4.281
			c-0.479-3.941-1.078-7.896-1.142-11.854c-0.241-14.819-0.565-29.646-0.338-44.462c0.177-11.515,0.995-22.954,2.508-34.302
			c-1.517-2.499-2.501-5.193-3.578-8.006c-2.249,12.097-3.39,24.356-4.118,36.632c-1.457,24.597-0.382,49.181,2.384,73.636
			c1.345,11.89,2.224,23.685,1.668,35.658c-0.689,14.834-2.036,29.585-4.799,44.153c-3.312,17.467-8.548,34.351-16.949,50.135
			c-1.867,3.509-3.638,7.071-5.379,10.645c-2.081,4.271-3.097,8.794-3.521,13.547c-1.571,17.64-7.448,73.715-8.298,84.156
			c-1.056,12.962-2.882,25.854-2.626,37.469c0.096,4.352-0.017,7.246,0.003,10.138c0.122,17.87,3.324,35.243,8.889,52.162
			c4.203,12.778,10.12,24.729,18.538,35.349c7.565,9.544,16.79,16.9,28.084,21.526c4.34,1.777,8.752,3.412,13.217,4.844
			c19.423,6.233,39.447,8.889,59.754,9.467c13.606,0.388,26.483-2.848,38.76-8.726c15.677-7.506,28.038-18.996,39.084-32.097
			c5.399-6.403,9.555-13.554,12.786-21.295c4.898-11.735,8.311-23.887,10.361-36.404c1.342-8.197,2.383-16.452,3.298-24.709
			C566.626,859.411,566.338,841.751,562.23,824.315z"/>
	</g>
	<g>
		<path fill="#B9AC97" d="M492.693,575.801c-8.721,8.63-21.26,15.147-38.056,19.778c-26.696,7.362-54.855,8.518-82.032,3.469
			c0.036,0.394,0.075,0.787,0.11,1.181c11.002,2.023,22.159,3.042,33.319,3.042c16.476,0,32.952-2.204,48.904-6.6
			c16.618-4.583,29.137-11.007,37.969-19.493C492.841,576.717,492.762,576.26,492.693,575.801z"/>
	</g>
	<g>
		<g>
			<path fill="#CD8C38" d="M501.74,980.689c17.142-1.699,32.02-1.44,46.858-2.113c25.884-1.174,51.797-1.31,77.677-2.351
				c16.724-0.672,33.459-1.698,50.061-4.21c10.581-1.601,20.922-4.105,31.024-7.536c9.075-3.082,17.387-7.712,25.03-13.517
				c4.272-3.244,8.129-6.916,11.315-11.238c7.359-9.982,10.13-21.199,8.564-33.439c-1.787-13.971-7.427-26.286-16.41-37.111
				c-5.633-6.788-12.063-12.734-19.258-17.786c-15.282-10.732-30.082-22.099-44.887-33.468c-7.86-6.035-16.095-11.549-24.713-16.458
				c-11.297-6.434-23.129-11.572-35.771-14.795c-14.567-3.714-29.283-4.499-44.203-2.886c-22.492,2.431-44.043,8.531-65.18,16.333
				c-17.866,6.595-35.36,14.095-52.817,21.685c-15.361,6.679-30.763,13.266-46.075,20.056c-10.091,4.475-20.09,9.162-30.066,13.89
				c-10.681,5.063-20.939,10.908-30.849,17.348c-6.723,4.369-13.074,9.22-18.683,14.987c-4.822,4.958-8.818,10.47-11.559,16.867
				c-5.989,13.974-5.227,27.438,2.981,40.337c1.428,2.244,2.996,4.415,4.663,6.488c12.127,15.084,16.309,18.442,33.461,26.743
				c2.384,1.154,4.934,1.985,7.449,2.844c3.991,1.363,8.112,2.09,12.338,2.104c7.238,0.024,14.48,0.188,21.712-0.011
				C413.057,982.941,501.026,980.689,501.74,980.689z"/>
		</g>
		<g>
			<path fill="#D7A360" d="M587.006,788.544c-12.921-1.426-26.006,0.026-38.769,2.493c-37.08,7.166-72.45,23.027-102.464,45.948
				c-1.659,1.267-3.483,2.983-3.148,5.044c8.968,4.475,19.788,2.655,29.243-0.669c9.456-3.324,18.556-8.077,28.498-9.345
				c12.552-1.601,25.259,2.516,37.856,1.318c12.885-1.225,24.743-7.915,37.606-9.355c11.954-1.338,23.869,1.934,35.727,3.956
				c14.024,2.392,31.218,4.686,45.316,1.716c4.288-0.903,9.428-2.694,8.697-8.284c-0.719-5.503-7.87-7.302-12.085-9.197
				c-4.276-1.922-7.563-5.229-11.625-7.194c-4.841-2.343-11.178-3.133-16.368-4.561
				C612.366,796.802,600.779,790.064,587.006,788.544z"/>
		</g>
		<g>
			<path fill="#241B14" d="M691.368,882.61c12.368-0.295,24.094-4.883,35.437-9.393c1.018,9.158,6.252,19.299,9.751,27.911
				c2.948,7.254,15.591,16.928,15.532,23.915c-0.016,1.865-1.317,3.507-2.678,4.909c-7.331,7.551-19.937,13.021-28.937,18.993
				c-10.683,7.09-23.911,9.716-36.763,11.572c-30.836,4.453-61.969,7.718-93.039,5.926c-11.239-0.648-22.437-1.957-33.668-2.742
				c-23.335-1.646-46.818-0.991-70.046,1.899c-9.734,1.211-17.973,4.439-27.246,6.604c-11.457,2.676-23.568,3.565-35.188,5.266
				c-13.332,1.952-26.754,3.86-40.198,3.24s-27.042-3.905-38.404-11.633c-18.071-12.292-28.522-34.512-32.852-56.982
				c-0.31-1.609-0.344-3.755,1.078-4.368c1.383-0.596,2.725,0.877,3.61,2.164c3.779,5.497,7.985,10.657,12.561,15.408
				c2.021,2.099,5.671,3.983,7.214,1.459c0.484-0.791,0.534-1.788,0.57-2.733c0.25-6.631,0.5-13.262,0.749-19.894
				c6.066,5.822,12.133,11.643,18.199,17.465c-0.582-10.647-1.164-21.295-1.746-31.942c5.211,0.389,9.302,4.769,12.755,8.971
				c4.8,5.841,9.383,11.887,13.736,18.118c-0.618-7.017-0.251-14.133,1.086-21.034c6.641,12.543,15.421,23.779,25.776,32.986
				c2.874,2.556,6.207,5.077,9.938,4.902c4.203-0.198,7.687-3.919,9.2-8.128c1.513-4.209,1.457-8.851,1.38-13.36
				c3.826-2.43,8.329,1.571,11.198,5.214c5.645,7.168,11.29,14.336,16.935,21.504c-1.392-9.379-1.219-19.022,0.509-28.336
				c3.197,7.858,6.394,15.716,9.591,23.574c1.805,4.436,3.968,9.265,8.125,11.148c12.72,5.762,10.312-28.167,12.737-34.857
				c3.189-8.795,11.182-14.632,19.465-17.821c13.172-5.071,27.62-4.742,41.508-2.876c13.887,1.866,27.621,5.202,41.599,5.953
				c26.359,1.416,46.309-11.077,71.285-14.219c9.455-1.189,18.999,1.33,28.544,1.228C690.903,882.62,691.135,882.616,691.368,882.61
				z"/>
		</g>
		<g>
			<path fill="#FEA501" d="M425.591,897.63c-11.306,0.294-19.99,6.977-24.193,18.43c-3.328,9.067-2.827,18.217,0.804,27.083
				c2.842,6.939,7.483,11.982,14.326,14.501c4.042,1.488,8.13,1.795,12.202,0.54c11.818-3.642,19.594-11.573,22.177-24.741
				c3.231-16.47-7.534-33.061-23.067-35.632C427.099,897.689,426.341,897.686,425.591,897.63z"/>
		</g>
		<g>
			<path fill="#FFFFFF" d="M425.618,897.288c-4.069-0.375-9.664,2.181-12.22,3.659c-5.625,3.253-9.681,8.795-12,15.112
				c-1.519,4.139-5.253,19.916,0.317,22.193c1.331,0.544,2.824,0.321,4.206-0.052c6.148-1.658,11.427-6.099,15.245-11.525
				c3.817-5.426,6.291-11.803,8.222-18.277c0.759-2.543,1.439-5.314,0.623-7.836C429.312,898.399,427.656,897.476,425.618,897.288z"
				/>
		</g>
		<g>
			<g>
				<path fill="#FEA501" d="M402.646,936.745c0.231,0,0.451-0.147,0.544-0.391c2.676-6.964,5.72-14.294,9.832-20.717
					c4.541-7.095,9.846-12.264,15.768-15.362c0.292-0.153,0.413-0.531,0.27-0.845c-0.145-0.312-0.496-0.439-0.788-0.29
					c-6.106,3.195-11.565,8.506-16.222,15.782c-4.175,6.521-7.249,13.923-9.95,20.952c-0.124,0.322,0.02,0.692,0.32,0.824
					C402.495,936.731,402.571,936.745,402.646,936.745z"/>
			</g>
			<g>
				<path fill="#FEA501" d="M416.213,933.54c0.319,0,0.588-0.273,0.596-0.617l0.77-35.348c0.007-0.349-0.25-0.638-0.576-0.647
					c-0.361,0.057-0.595,0.269-0.603,0.617l-0.77,35.348C415.623,933.243,415.887,933.532,416.213,933.54L416.213,933.54z"/>
			</g>
			<g>
				<path fill="#FEA501" d="M405.846,917.615c0.119,0,0.237-0.038,0.341-0.116c2.369-1.798,5.352-2.451,7.964-2.922
					c4.813-0.87,9.73-1.349,14.617-1.42c0.326-0.005,0.586-0.291,0.581-0.641c-0.005-0.346-0.271-0.623-0.593-0.623l0,0
					c-4.947,0.073-9.93,0.557-14.801,1.438c-2.74,0.495-5.878,1.186-8.45,3.137c-0.266,0.201-0.328,0.596-0.14,0.881
					C405.48,917.522,405.662,917.615,405.846,917.615z"/>
			</g>
		</g>
		<g>
			<path fill="#D7A360" d="M503.146,953.636c4.405,3.096,9.264,5.239,14.288,7.025c10.097,3.572,20.575,5.525,31.172,6.763
				c11.002,1.286,22.028,1.5,33.053,0.286c11.002-1.238,21.718-3.763,32.101-7.668c11.431-4.334,22.194-10.002,32.482-16.598
				c11.525-7.406,22.623-15.455,33.268-24.099c13.335-10.787,26.243-22.028,38.459-34.077c4.334-4.286,8.811-8.406,13.312-12.502
				c10.62-9.628,23.526-16.364,33.656-26.506c2.62-2.624,5.028-5.92,4.917-9.626c-0.315-10.595-12.465-3.981-17.332-2.351
				c-1.119,0.381-2.262,0.667-3.429,0.905c-3.31,0.667-6.763,0.762-10.145,0.571c-3.858-0.214-7.549,0.31-11.288,1.096
				c-19.408,4.167-39.126,5.787-58.867,7.358c-14.027,1.143-28.076,1.977-42.055,3.858c-7.906,1.072-15.884,1.858-23.814,2.786
				c-15.908,1.857-31.553,5.12-46.865,9.787c-19.265,5.882-36.244,15.765-49.985,30.719c-3.572,3.929-6.811,8.192-9.811,12.574
				c-3.239,4.739-5.215,10.097-6.382,15.788C487.024,933.538,491.667,945.516,503.146,953.636z"/>
		</g>
		<g>
			<g>
				<path fill="#2A604A" d="M715.708,964.224c8.918,3.672,11.141,3.813,18.022-1.504c9.079-7.015,7.471-5.412,18.684-7.296
					c13.408-2.252,28.824-5.232,37.885-17.339c-12.657,0.237-25.286,2.091-37.537,5.511c9.6-10.775,13.26-25.961,16.566-40.434
					c-1.125,4.923-16.298,12.013-20.21,14.606c-6.489,4.301-12.181,9.88-18.633,14.477c-5.769,4.11-16.066,12.712-14.73-0.388
					c1.2-11.764,4.955-22.92,5.547-34.936c-2.41-0.164-4.458,1.761-6.162,3.597c-12.509,13.483-22.985,29.131-30.897,46.152
					c1.588-12.869,2.151-25.883,1.682-38.854c-5.672,2.945-10.038,10.004-12.548,16.063c-4.462,10.774-7.605,21.947-7.817,33.846
					c-0.035,1.945,0.554,3.928,1.014,5.85c0.292,1.222,2.709,2.314,3.789,1.847c0.696-0.301,1.352-0.708,2.032-1.053
					c4.849-2.461,4.849-2.46,7.131,2.827c0.722,1.673,2.128,2.156,3.635,1.167c1.925-1.263,3.703-2.853,5.741-3.834
					c3.848-1.852,7.787-3.152,11.611,0.353c1.522,1.396,3.549,1.375,5.401,1.117C709.262,965.534,712.575,964.807,715.708,964.224z"
					/>
			</g>
			<g>
				<path fill="#2A604A" d="M327.602,944.478c-0.568-0.659-1.072-1.25-1.478-1.755c-5.502-6.841-11.63-13.102-18.254-18.683
					c-13.246-11.162-28.495-19.617-44.712-24.546c8.625,11.411,17.251,22.822,25.876,34.233
					c-10.715-6.676-23.107-10.225-35.499-10.167c2.421-0.011,10.524,10.242,12.706,12.175c4.693,4.157,9.547,8.105,14.546,11.83
					c10.186,7.591,17.572,11.612,30.155,13.359c1.855,0.257,3.737,0.286,5.318,0.4c3.354-1.027,6.249-0.121,9.143,0.782
					c1.442,0.45,2.861,1.006,4.324,1.355c4.218,1.008,7.967,0.295,8.228-1.536c0.792-5.585-5.32-11.397-8.348-15.124
					c-4.174-5.137-5.401-9.377-5.795-16.554c-0.857-15.627,3.914-30.963,2.869-46.607c16.51,19.665,33.722,40.836,37.816,66.928
					c0.449,2.865,0.688,6.002-0.706,8.493c-1.019,1.822-2.77,3.022-4.532,3.994c-7.966,4.393-17.518,5.367-26.114,2.662
					L327.602,944.478z"/>
			</g>
			<g>
				<path fill="#2A604A" d="M401.904,964.496c6.068-8.436,4.851-33.56,3.026-40.797c-4.164-16.51-14.186-30.487-23.981-43.986
					c0.941,1.297-0.811,10.407-0.823,12.452c-0.026,4.528,0.248,9.053,0.741,13.549c0.588,5.367,0.945,20.508,4.994,23.624
					c-6.693-9.833-14.076-19.126-22.065-27.775c1.065,4.325,0.478,8.892,0.627,13.362c0.619,18.546,8.496,29.642,19.52,42.863
					c1.749,2.098,3.752,3.979,5.777,5.78C395.436,968.652,399.327,968.078,401.904,964.496z"/>
			</g>
			<g>
				<path fill="#2A604A" d="M610.503,967.339c0.196,0.148,0.41,0.281,0.642,0.397c4.01,2.003,14.281-3.649,18.33-4.79
					c2.954-0.833,5.927-1.673,8.693-3.064c7.207-3.623,12.378-10.626,16.891-17.656c1.647-2.565,3.316-5.492,2.879-8.57
					c-3.437,4.108-7.42,7.689-11.791,10.602c-0.938,0.625-2.212,1.202-3.061,0.445c8.607-9.808,8.12-17.281,8.049-29.465
					c-2.268,5.246-7.615,8.101-10.881,12.552c-4.992,6.804-10.164,13.005-14.219,20.483c-0.804-8.002-2.414-15.91-4.792-23.543
					c-0.256-0.821-0.731-1.801-1.536-1.753c-0.529,0.031-0.923,0.516-1.244,0.967c-5.799,8.167-9.053,18.376-9.129,28.641
					C609.303,956.689,606.879,964.603,610.503,967.339z"/>
			</g>
			<g>
				<path fill="#2A604A" d="M513.286,947.51c3.624,9.147,10.131,15.84,22.555,16.238c3.305,0.106,6.766-0.034,9.658-1.753
					c4.458-2.651,6.48-8.433,6.939-13.876c0.606-7.178-0.877-14.349-2.35-21.381c-0.109-0.519-0.412-1.179-0.894-1.053
					c-0.184,0.048-0.321,0.208-0.446,0.36c-4.749,5.792-8.531,12.494-11.112,19.692c-3.482-2.624-5.5-6.983-8.398-10.237
					c-3.693-4.145-8.085-7.777-12.067-11.607c-2.686-2.584-5.529-5.258-9.041-6.148C508.982,927.661,509.803,938.719,513.286,947.51
					z"/>
			</g>
			<g>
				<path fill="#2A604A" d="M462.829,963.415c0.443-0.227,0.898-0.532,1.366-0.92c4.583-3.809,5.651-14.987,5.75-20.6
					c0.126-7.142-1.215-14.231-3.064-21.093c-2.263,5.98-4.11,12.14-5.522,18.413c-3.966-13.379-11.68-25.136-22.147-33.627
					c2.707,9.768,2.939,20.166,5.565,29.96C446.252,941.05,455.321,967.273,462.829,963.415z"/>
			</g>
			<g>
				<path fill="#2A604A" d="M489.374,960.338c5.933-4.543-0.785-26.748-3.522-31.791c-2.369-4.364-4.738-8.729-7.107-13.093
					c-0.912-0.009-1.362,1.168-1.541,2.126c-1.389,7.457-1.172,15.166-0.288,22.711
					C477.379,944.239,481.946,965.935,489.374,960.338z"/>
			</g>
			<g>
				<path fill="#2A604A" d="M444.049,956.946c-1.127-3.91-2.647-7.565-5.101-10.676c-0.707-0.896-1.592-1.704-2.538-2.282
					c-0.571-0.349-1.441-0.327-2.134-0.203c-0.878,0.158-1.803,2.064-1.47,2.863c0.604,1.448,1.143,2.954,1.935,4.281
					c1.836,3.073,4.28,5.568,7.046,7.666c0.518,0.393,1.355,0.302,2.045,0.435C443.906,958.317,443.98,957.605,444.049,956.946z"/>
			</g>
		</g>
		<g>
			<path fill="#FEA501" d="M701.597,959.957c6.914-0.113,13.125-1.262,18.659-5.217c16.807-12.01,14.82-32.167-0.546-42.645
				c-3.539-2.413-7.493-3.909-11.595-4.548c-2.543-0.396-5.31-0.29-7.806,0.351c-6.314,1.624-11.897,4.975-16.849,9.48
				c-10.627,9.668-8.512,25.873-1.673,33.674C687.307,957.351,694.004,960.081,701.597,959.957z"/>
		</g>
		<g>
			<path fill="#FFFFFF" d="M717.939,931.877c1.019,0.683,2.045,1.354,3.08,2.01c2.286,1.451,4.793,2.882,7.44,2.637
				c6.987-0.647,3.509-7.481,1.932-11.447c-2.158-5.429-6.071-9.838-10.682-12.981c-3.539-2.413-7.493-3.909-11.595-4.548
				c-3.684-0.574-9.896-1.014-10.049,4.518c-0.097,3.492,2.578,6.28,5.106,8.485C707.87,924.648,712.805,928.432,717.939,931.877z"
				/>
		</g>
		<g>
			<path fill="#FEA501" d="M354.606,954.711c7.298,0.081,12.226-4.98,12.212-12.542c-0.014-7.824-5.467-13.718-12.763-13.796
				c-6.51-0.07-11.83,6.046-11.679,13.427C342.526,949.139,347.733,954.635,354.606,954.711z"/>
		</g>
		<g>
			<path fill="#FFFFFF" d="M354.899,938.167c2.361,0.044,4.725-0.126,7.059-0.51c0.72-0.119,1.477-0.276,2.027-0.789
				c0.797-0.743,0.932-2.072,0.57-3.135c-1.244-3.648-7.341-5.325-10.498-5.359c-2.471-0.026-13.343,4.743-8.692,8.099
				c0.736,0.531,1.625,0.748,2.497,0.924C350.18,937.866,352.538,938.123,354.899,938.167z"/>
		</g>
		<g>
			<path fill="#FFFFFF" d="M749.092,835.188c1.953,2.548,5.215,4.334,5.834,7.454c0.357,1.953-0.405,3.882-0.81,5.81
				c-0.429,1.953-0.31,4.286,1.31,5.453c0.429,0.31,0.929,0.5,1.453,0.595c7.739-4.31,15.812-8.025,24.171-11.311
				c7.621-3.001,15.407-4.263,23.504-2.953c4.572,0.762,9.073,0.643,13.597-0.333c5.739-1.238,10.692-3.905,14.836-8.049
				c1.048-1.071,1.953-2.334,2.738-3.62c2.644-4.382,2.12-8.597-1.452-12.55c-1.238-1.357-3.382-1.905-3.715-4.525
				c1.429-1.357,3.072-2.834,4.62-4.429c2.453-2.524,3.882-5.62,4.62-9.025c0.738-3.501,0.048-6.787-1.857-9.835
				c-1.857-3-6.454-5.239-9.811-4.644c-4.572,0.81-9.002,2.262-12.431,5.406c-8.097,7.454-17.146,13.859-24.671,22.004
				c-10.597,11.43-23.861,18.741-38.507,23.647C751.402,834.664,750.259,834.95,749.092,835.188z"/>
		</g>
		<g>
			<g>
				<path fill="#FFFFFF" d="M629.951,955.654c0.175,0,0.35-0.084,0.466-0.244c8.199-11.34,14.784-23.884,19.573-37.286
					c0.116-0.326-0.036-0.691-0.34-0.816c-0.305-0.122-0.646,0.038-0.761,0.364c-4.747,13.284-11.276,25.721-19.405,36.962
					c-0.199,0.276-0.152,0.673,0.105,0.887C629.698,955.61,629.824,955.654,629.951,955.654z"/>
			</g>
			<g>
				<path fill="#FFFFFF" d="M531.673,955.376c0.136,0,0.272-0.049,0.382-0.151c0.247-0.227,0.277-0.626,0.067-0.891
					c-7.984-10.038-14.696-21.174-19.947-33.101c-0.139-0.317-0.493-0.449-0.785-0.301c-0.294,0.149-0.42,0.526-0.281,0.842
					c5.296,12.027,12.064,23.257,20.115,33.38C531.341,955.301,531.507,955.376,531.673,955.376z"/>
			</g>
			<g>
				<path fill="#FFFFFF" d="M542.196,958.423c0.22,0,0.432-0.133,0.533-0.362c4.009-9.075,6.082-19.178,5.992-29.218
					c-0.003-0.347-0.269-0.626-0.592-0.626l0,0c-0.326,0.004-0.59,0.289-0.586,0.638c0.087,9.85-1.945,19.762-5.88,28.665
					c-0.139,0.315-0.014,0.692,0.281,0.842C542.025,958.403,542.111,958.423,542.196,958.423z"/>
			</g>
			<g>
				<path fill="#FFFFFF" d="M316.776,949.294c0.154,0,0.31-0.065,0.425-0.194c0.226-0.252,0.219-0.652-0.016-0.893
					c-15.223-15.692-31.242-30.903-47.615-45.208c-0.252-0.218-0.623-0.183-0.829,0.091c-0.206,0.27-0.168,0.668,0.085,0.889
					c16.346,14.283,32.343,29.47,47.541,45.139C316.481,949.236,316.628,949.294,316.776,949.294z"/>
			</g>
			<g>
				<path fill="#FFFFFF" d="M527.181,950.822c0.234,0,0.456-0.151,0.548-0.399c0.12-0.323-0.028-0.691-0.33-0.821l-11.938-5.094
					c-0.302-0.125-0.645,0.028-0.765,0.354c-0.12,0.323,0.028,0.691,0.33,0.821l11.938,5.095
					C527.035,950.807,527.109,950.822,527.181,950.822z"/>
			</g>
			<g>
				<path fill="#FFFFFF" d="M522.803,939.393c0.26,0,0.497-0.185,0.569-0.466c0.085-0.337-0.1-0.684-0.414-0.775
					c-4.968-1.448-9.798-3.475-14.353-6.026c-0.29-0.158-0.643-0.041-0.795,0.268c-0.151,0.31-0.039,0.691,0.25,0.853
					c4.631,2.593,9.539,4.654,14.59,6.125C522.7,939.385,522.752,939.393,522.803,939.393z"/>
			</g>
			<g>
				<path fill="#FFFFFF" d="M311.042,942.206c0.036,0,0.073-0.004,0.108-0.011c0.32-0.063,0.532-0.392,0.472-0.736
					c-0.866-5-2.2-9.926-3.967-14.646c-0.473-1.255-1.201-1.237-1.493-1.172c-0.382,0.085-0.635,0.43-0.628,0.857
					c0.006,0.421,0.28,0.926,0.71,1.006c0.121,0.022,0.256,0.009,0.381-0.048c1.706,4.589,2.997,9.377,3.839,14.233
					C310.516,941.994,310.765,942.206,311.042,942.206z"/>
			</g>
			<g>
				<path fill="#FFFFFF" d="M300.099,932.388c0.053,0,0.107-0.007,0.161-0.023c0.313-0.096,0.495-0.445,0.406-0.781
					c-1.372-5.183-3.787-10.119-6.984-14.27c-0.207-0.269-0.58-0.309-0.83-0.085c-0.251,0.222-0.287,0.621-0.079,0.89
					c3.094,4.018,5.431,8.793,6.758,13.811C299.605,932.206,299.842,932.388,300.099,932.388z"/>
			</g>
			<g>
				<path fill="#FFFFFF" d="M297.735,946.163c0.214,0,0.42-0.126,0.525-0.344c0.148-0.311,0.033-0.691-0.257-0.85
					c-11.92-6.538-23.799-13.58-35.307-20.932c-0.276-0.18-0.639-0.081-0.808,0.22c-0.167,0.3-0.075,0.687,0.205,0.866
					c11.528,7.364,23.43,14.421,35.373,20.972C297.552,946.141,297.644,946.163,297.735,946.163z"/>
			</g>
			<g>
				<path fill="#FFFFFF" d="M341.677,938.564c0.069,0,0.138-0.012,0.206-0.039c0.305-0.123,0.46-0.487,0.346-0.813
					c-4.939-14.156-8.845-28.853-11.608-43.682c-0.064-0.343-0.381-0.568-0.693-0.496c-0.32,0.068-0.526,0.401-0.463,0.743
					c2.776,14.896,6.699,29.659,11.659,43.877C341.213,938.408,341.438,938.564,341.677,938.564z"/>
			</g>
			<g>
				<path fill="#FFFFFF" d="M393.572,955.526l0.041-0.001c0.325-0.023,0.57-0.326,0.548-0.674
					c-1.206-18.983-4.102-37.941-8.61-56.348c-0.655-2.676-1.296-5.069-2.496-7.26c-0.167-0.302-0.532-0.396-0.807-0.226
					c-0.281,0.178-0.375,0.564-0.211,0.865c1.125,2.054,1.74,4.359,2.373,6.942c4.488,18.331,7.373,37.209,8.573,56.114
					C393.007,955.271,393.266,955.526,393.572,955.526z"/>
			</g>
			<g>
				<path fill="#FFFFFF" d="M338.601,924.94c0.176,0,0.351-0.085,0.467-0.247l9.159-12.775c0.198-0.276,0.15-0.674-0.108-0.886
					c-0.254-0.212-0.626-0.163-0.826,0.116l-9.159,12.775c-0.198,0.276-0.15,0.674,0.108,0.886
					C338.349,924.896,338.475,924.94,338.601,924.94z"/>
			</g>
			<g>
				<path fill="#FFFFFF" d="M341.887,939.141c0.168,0,0.335-0.076,0.452-0.227c0.208-0.267,0.175-0.665-0.075-0.89
					c-5.264-4.721-10.484-9.62-15.514-14.564c-0.239-0.237-0.612-0.218-0.832,0.038c-0.221,0.257-0.204,0.657,0.036,0.892
					c5.043,4.958,10.277,9.871,15.556,14.604C341.619,939.093,341.754,939.141,341.887,939.141z"/>
			</g>
			<g>
				<path fill="#FFFFFF" d="M335.13,917.977c0.112,0,0.223-0.033,0.323-0.104c0.272-0.191,0.348-0.583,0.169-0.875
					c-2.413-3.946-5.273-7.57-8.503-10.773c-0.242-0.237-0.615-0.22-0.833,0.035c-0.221,0.257-0.206,0.657,0.032,0.893
					c3.16,3.132,5.959,6.678,8.319,10.538C334.751,917.877,334.939,917.977,335.13,917.977z"/>
			</g>
		</g>
		<g>
			<g>
				<path fill="#FEA501" d="M727.684,923.128c0.304,0,0.562-0.251,0.586-0.581c0.026-0.348-0.215-0.653-0.54-0.68
					c-7.375-0.633-14.826-1.55-22.148-2.725c-0.319-0.039-0.622,0.185-0.67,0.531c-0.048,0.346,0.174,0.666,0.495,0.718
					c7.348,1.18,14.827,2.1,22.228,2.735L727.684,923.128z"/>
			</g>
			<g>
				<path fill="#FEA501" d="M722.094,936.316c0.06,0,0.122-0.01,0.182-0.031c0.31-0.107,0.479-0.464,0.379-0.796
					c-2.751-9.081-6.679-17.698-11.672-25.613c-0.183-0.289-0.551-0.363-0.818-0.169c-0.269,0.195-0.341,0.589-0.158,0.877
					c4.931,7.817,8.809,16.328,11.527,25.295C721.614,936.147,721.845,936.316,722.094,936.316z"/>
			</g>
			<g>
				<path fill="#FEA501" d="M732.566,934.204c0.178,0,0.355-0.086,0.471-0.252c0.196-0.279,0.144-0.675-0.116-0.885l-31.042-25.065
					c-0.351-0.284-1.08-0.874-1.896-0.581c-0.597,0.217-0.838,0.932-0.725,1.497c0.107,0.531,0.531,0.853,0.99,0.817
					c0.323-0.033,0.562-0.342,0.531-0.69c-0.015-0.158-0.082-0.296-0.181-0.397c0.198,0.062,0.456,0.27,0.572,0.364l31.042,25.065
					C732.317,934.162,732.442,934.204,732.566,934.204z"/>
			</g>
		</g>
		<g>
			<g>
				<path fill="#C28953" d="M730.177,867.402c0.194,0,0.384-0.095,0.499-0.27c4.907-7.505,5.398-17.492,1.252-25.443
					c-0.154-0.292-0.513-0.401-0.803-0.252c-0.291,0.152-0.405,0.512-0.252,0.803c3.889,7.458,3.409,17.2-1.194,24.24
					c-0.179,0.274-0.102,0.644,0.173,0.824C729.951,867.37,730.064,867.402,730.177,867.402z"/>
			</g>
			<g>
				<path fill="#C28953" d="M717.848,864.57c0.292,0,0.547-0.215,0.588-0.512c0.734-5.182,0.326-10.574-1.181-15.589
					c-0.093-0.314-0.431-0.495-0.741-0.399c-0.315,0.094-0.494,0.426-0.399,0.741c1.457,4.852,1.852,10.067,1.142,15.08
					c-0.047,0.326,0.18,0.627,0.506,0.673C717.792,864.568,717.82,864.57,717.848,864.57z"/>
			</g>
			<g>
				<path fill="#C28953" d="M697.545,892.963c0.151,0,0.302-0.057,0.419-0.172c3.845-3.798,6.907-8.23,9.098-13.175
					c0.134-0.3-0.002-0.652-0.303-0.785c-0.297-0.134-0.65,0-0.785,0.303c-2.101,4.739-5.159,9.168-8.846,12.81
					c-0.234,0.23-0.236,0.608-0.005,0.842C697.238,892.904,697.392,892.963,697.545,892.963z"/>
			</g>
			<g>
				<path fill="#C28953" d="M640.671,918.245c0.085,0,0.171-0.017,0.252-0.056c10.881-5.081,21.073-11.565,30.293-19.271
					c0.252-0.21,0.286-0.586,0.076-0.838c-0.212-0.252-0.591-0.285-0.838-0.076c-9.141,7.639-19.246,14.068-30.034,19.106
					c-0.298,0.14-0.427,0.493-0.287,0.792C640.233,918.118,640.448,918.245,640.671,918.245z"/>
			</g>
			<g>
				<path fill="#C28953" d="M616.73,906.752c0.05,0,0.1-0.006,0.151-0.02c6.852-1.8,13.322-4.691,19.23-8.593
					c0.274-0.181,0.35-0.55,0.169-0.824c-0.179-0.274-0.548-0.351-0.824-0.169c-5.8,3.829-12.151,6.667-18.876,8.435
					c-0.319,0.084-0.508,0.409-0.424,0.727C616.224,906.576,616.466,906.752,616.73,906.752z"/>
			</g>
			<g>
				<path fill="#C28953" d="M592.73,930.903c0.035,0,0.071-0.003,0.106-0.009c7.332-1.31,14.479-3.556,21.24-6.675
					c0.299-0.138,0.429-0.492,0.292-0.789c-0.138-0.299-0.493-0.43-0.79-0.292c-6.67,3.077-13.72,5.293-20.952,6.585
					c-0.323,0.058-0.539,0.367-0.481,0.691C592.197,930.701,592.448,930.903,592.73,930.903z"/>
			</g>
			<g>
				<path fill="#C28953" d="M583.054,917.017c6.469,0,12.881-1.562,18.626-4.546c0.292-0.151,0.406-0.51,0.253-0.802
					c-0.151-0.293-0.513-0.408-0.802-0.253c-5.939,3.084-12.593,4.619-19.314,4.392c-0.313,0.028-0.602,0.249-0.614,0.577
					c-0.01,0.328,0.248,0.603,0.577,0.614C582.205,917.01,582.629,917.017,583.054,917.017z"/>
			</g>
			<g>
				<path fill="#C28953" d="M564.323,932.268l0.045-0.001l11.638-0.862c0.328-0.024,0.573-0.31,0.55-0.638
					c-0.024-0.329-0.313-0.588-0.638-0.55l-11.638,0.862c-0.328,0.024-0.573,0.31-0.55,0.638
					C563.753,932.03,564.015,932.268,564.323,932.268z"/>
			</g>
			<g>
				<path fill="#C28953" d="M573.067,946.237l0.028-0.001l18.923-0.887c0.328-0.015,0.583-0.293,0.566-0.622
					c-0.014-0.328-0.294-0.608-0.622-0.566l-18.923,0.887c-0.328,0.015-0.583,0.293-0.566,0.622
					C572.486,945.988,572.75,946.237,573.067,946.237z"/>
			</g>
			<g>
				<path fill="#C28953" d="M541.711,927.631c0.3,0,0.559-0.228,0.591-0.534c0.035-0.327-0.202-0.62-0.53-0.653
					c-8.066-0.844-15.949-3.591-22.793-7.943c-0.276-0.176-0.644-0.096-0.822,0.183c-0.177,0.278-0.094,0.645,0.183,0.822
					c7,4.45,15.059,7.259,23.309,8.122L541.711,927.631z"/>
			</g>
			<g>
				<path fill="#C28953" d="M554.473,908.984c2.612,0,5.22-0.229,7.78-0.69c0.323-0.058,0.538-0.367,0.48-0.692
					c-0.059-0.322-0.367-0.529-0.692-0.48c-6.165,1.107-12.618,0.84-18.669-0.779c-0.321-0.077-0.644,0.106-0.729,0.422
					c-0.085,0.317,0.105,0.644,0.422,0.729C546.769,908.485,550.623,908.984,554.473,908.984z"/>
			</g>
		</g>
		<g>
			<g>
				<path fill="#F2B37A" d="M653.912,823.052c0.142,0,0.284-0.05,0.398-0.152c0.244-0.22,0.265-0.596,0.045-0.841
					c-7.941-8.845-21.064-13.004-32.646-10.341c-0.32,0.073-0.52,0.393-0.447,0.714c0.072,0.321,0.383,0.522,0.714,0.446
					c11.174-2.569,23.833,1.442,31.492,9.975C653.586,822.986,653.749,823.052,653.912,823.052z"/>
			</g>
			<g>
				<path fill="#F2B37A" d="M633.516,824.447c0.264,0,0.505-0.176,0.576-0.443c0.084-0.317-0.105-0.643-0.423-0.728
					c-6.943-1.841-14.107-2.791-21.289-2.822l0,0c-0.328,0-0.595,0.265-0.596,0.593c-0.001,0.329,0.264,0.596,0.593,0.598
					c7.081,0.031,14.143,0.967,20.988,2.782C633.415,824.441,633.466,824.447,633.516,824.447z"/>
			</g>
			<g>
				<path fill="#F2B37A" d="M585.44,804.897c0.031,0,0.063-0.002,0.094-0.007c7.184-1.133,14.471-1.143,21.659-0.034
					c0.312,0.052,0.629-0.172,0.679-0.498c0.05-0.324-0.172-0.629-0.498-0.679c-7.31-1.127-14.721-1.116-22.026,0.034
					c-0.324,0.051-0.547,0.356-0.495,0.681C584.899,804.688,585.153,804.897,585.44,804.897z"/>
			</g>
			<g>
				<path fill="#F2B37A" d="M572.292,819.377c0.107,0,0.214-0.028,0.31-0.087c6.327-3.873,14.143-5.365,21.449-4.098
					c0.335,0.063,0.633-0.159,0.688-0.484c0.057-0.324-0.16-0.633-0.484-0.688c-7.588-1.321-15.706,0.233-22.274,4.253
					c-0.28,0.172-0.369,0.538-0.198,0.819C571.897,819.276,572.092,819.377,572.292,819.377z"/>
			</g>
			<g>
				<path fill="#F2B37A" d="M561.073,831.131c1.999,0,4.001-1.092,5.823-2.085l0.367-0.2c2.227-1.205,5.339-1.966,6.792-0.128
					c0.203,0.259,0.578,0.302,0.836,0.099c0.258-0.203,0.302-0.578,0.099-0.836c-1.905-2.421-5.658-1.612-8.294-0.181l-0.37,0.201
					c-2.199,1.199-4.688,2.558-6.799,1.617c-0.297-0.131-0.651,0.001-0.786,0.302c-0.134,0.3,0.001,0.652,0.302,0.786
					C559.715,831.006,560.392,831.131,561.073,831.131z"/>
			</g>
			<g>
				<path fill="#F2B37A" d="M538.811,818.659c0.099,0,0.199-0.024,0.291-0.076c4.065-2.28,8.432-3.95,12.979-4.963
					c0.321-0.072,0.523-0.39,0.452-0.71c-0.071-0.32-0.386-0.519-0.71-0.452c-4.66,1.038-9.136,2.75-13.302,5.086
					c-0.287,0.162-0.39,0.524-0.229,0.81C538.401,818.55,538.603,818.659,538.811,818.659z"/>
			</g>
			<g>
				<path fill="#F2B37A" d="M548.339,800.571c0.096,0,0.193-0.023,0.284-0.072c4.603-2.49,9.795-4.036,15.015-4.473
					c0.327-0.027,0.571-0.315,0.543-0.643c-0.027-0.328-0.333-0.555-0.643-0.543c-5.381,0.45-10.735,2.045-15.482,4.613
					c-0.288,0.156-0.397,0.517-0.24,0.807C547.923,800.459,548.128,800.571,548.339,800.571z"/>
			</g>
			<g>
				<path fill="#F2B37A" d="M512.434,815.544c0.127,0,0.255-0.041,0.363-0.123c4.73-3.634,9.918-6.653,15.422-8.977
					c0.303-0.128,0.445-0.478,0.317-0.78c-0.129-0.304-0.48-0.441-0.78-0.317c-5.596,2.363-10.874,5.435-15.685,9.13
					c-0.26,0.2-0.309,0.574-0.109,0.835C512.079,815.464,512.256,815.544,512.434,815.544z"/>
			</g>
			<g>
				<path fill="#F2B37A" d="M514.768,831.766c0.143,0,0.285-0.051,0.399-0.154c2.622-2.367,5.824-4.052,9.261-4.872
					c0.32-0.077,0.517-0.398,0.441-0.717c-0.076-0.319-0.391-0.521-0.717-0.441c-3.63,0.866-7.014,2.645-9.782,5.146
					c-0.244,0.221-0.264,0.596-0.043,0.841C514.443,831.7,514.605,831.766,514.768,831.766z"/>
			</g>
			<g>
				<path fill="#F2B37A" d="M586.853,824.337c0.04,0,0.08-0.004,0.12-0.012c7.384-1.5,14.929-1.884,22.424-1.142
					c0.321,0.023,0.617-0.207,0.651-0.535c0.031-0.327-0.207-0.619-0.535-0.651c-7.608-0.75-15.278-0.363-22.778,1.16
					c-0.322,0.066-0.53,0.38-0.465,0.702C586.328,824.143,586.576,824.337,586.853,824.337z"/>
			</g>
			<g>
				<path fill="#F2B37A" d="M606.549,810.09c0.987,0,1.974-0.037,2.962-0.112c0.328-0.026,0.573-0.312,0.549-0.64
					c-0.026-0.327-0.297-0.578-0.64-0.549c-3.602,0.278-7.221,0.031-10.752-0.716c-0.328-0.06-0.637,0.137-0.706,0.459
					c-0.067,0.322,0.137,0.637,0.459,0.706C601.095,809.805,603.819,810.09,606.549,810.09z"/>
			</g>
			<g>
				<path fill="#F2B37A" d="M671.288,825.371c0.201,0,0.399-0.102,0.51-0.288c0.169-0.283,0.078-0.648-0.203-0.817
					c-5.734-3.445-11.877-6.205-18.259-8.2c-0.32-0.094-0.649,0.078-0.747,0.391c-0.098,0.314,0.077,0.648,0.391,0.746
					c6.293,1.966,12.35,4.686,18.001,8.084C671.078,825.343,671.184,825.371,671.288,825.371z"/>
			</g>
			<g>
				<path fill="#F2B37A" d="M588.407,790.368c4.444,0,8.894-0.505,13.187-1.509c0.32-0.076,0.519-0.395,0.444-0.716
					c-0.076-0.319-0.385-0.514-0.716-0.444c-7.258,1.7-14.981,1.939-22.332,0.693c-0.321-0.05-0.633,0.164-0.687,0.487
					c-0.055,0.324,0.164,0.633,0.487,0.687C581.949,790.101,585.177,790.368,588.407,790.368z"/>
			</g>
			<g>
				<path fill="#F2B37A" d="M481.998,825.183c0.112,0,0.224-0.031,0.324-0.097c4.909-3.186,10.264-5.566,15.915-7.073
					c0.317-0.085,0.507-0.412,0.422-0.729c-0.084-0.316-0.409-0.505-0.729-0.422c-5.772,1.54-11.241,3.971-16.257,7.227
					c-0.276,0.178-0.353,0.548-0.174,0.823C481.613,825.087,481.804,825.183,481.998,825.183z"/>
			</g>
			<g>
				<path fill="#F2B37A" d="M456.495,835.359c0.126,0,0.25-0.038,0.358-0.12c4.063-3.055,8.471-5.671,13.1-7.775
					c0.299-0.136,0.431-0.488,0.295-0.788c-0.137-0.3-0.492-0.429-0.788-0.295c-4.708,2.14-9.191,4.801-13.323,7.908
					c-0.263,0.198-0.315,0.571-0.117,0.834C456.136,835.278,456.315,835.359,456.495,835.359z"/>
			</g>
			<g>
				<path fill="#F2B37A" d="M471.807,834.582c0.067,0,0.137-0.012,0.203-0.036c7.542-2.751,15.371-4.874,23.268-6.313
					c0.323-0.059,0.537-0.37,0.479-0.693c-0.058-0.324-0.367-0.536-0.693-0.479c-7.964,1.451-15.857,3.593-23.461,6.366
					c-0.309,0.113-0.469,0.455-0.356,0.763C471.336,834.432,471.564,834.582,471.807,834.582z"/>
			</g>
		</g>
		<g>
			<path fill="#241B14" d="M329.424,944.847c12.686,1.073,24.671,5.026,37.528,5.829c14.873,0.928,29.739,2.147,44.593,3.663
				c6.848,0.699,13.705,1.129,20.56,1.379c9.139,0.333,18.282,0.663,27.421,0.482c19.046-0.377,38.09-1.455,57.136-1.59
				c38.861-0.276,77.723,0.03,116.583-0.197c29.856-0.192,58.849-4.746,88.541-8.759c15.923-2.152,31.169-2.271,47.176-3.07
				c1.482-0.074,3.217,0.037,4.079,1.931c0.651,1.43,0.544,3.364,0.386,5.104c-1.442,15.875-4.878,31.297-10.051,45.12
				c-0.68,1.818-1.422,3.661-2.527,4.858c-2.804,3.038-6.577,0.851-9.807-0.847c-24.667-12.971-51.88,9.078-77.418,1.312
				c-10.38-3.157-19.927-9.674-30.49-11.655c-10.288-1.93-20.969,0.405-31.339,1.593c-1.521,0.174-3.053,0.144-4.565,0.487
				c-15.181,3.447-30.429,3.042-45.665,3.5c-31.622,0.28-63.246,0.311-94.867,0.914c-27.815,0.53-55.625,0.907-83.427-1.143
				c-7.828-0.577-15.85-3.163-23.563-3.559c-7.216-0.371-15.059,3.547-22.303,4.773c-15.81,2.676-31.792,2.856-47.624,0.515
				c-3.768-0.557-7.857-1.503-10.462-5.816c-2.128-3.523-2.806-8.568-3.396-13.335c-0.848-6.85-7.152-35.848-3.766-40.835
				c2.691-3.963,16.421,1.132,19.758,2.028C304.375,940.872,316.859,943.785,329.424,944.847z"/>
		</g>
	</g>
	<g>
		<g>
			<path fill="#2A604A" d="M582.527,798.778c-0.097,0-0.195-0.024-0.285-0.077c-20.102-11.756-32.62-35.267-31.15-58.504
				c0.124-1.952,0.418-3.953,1.736-5.359c0.174-0.183,0.449-0.232,0.668-0.117c0.224,0.113,0.347,0.36,0.3,0.607
				c-1.729,9.266,1.911,16.023,6.127,23.844c1.025,1.903,2.085,3.871,3.111,5.953c4.792,9.716,12.288,18.942,22.277,27.426
				c1.812,1.537,4.18,3.213,6.452,2.617c0.306-0.077,0.611,0.097,0.692,0.4c0.081,0.3-0.099,0.612-0.401,0.691
				c-2.768,0.744-5.452-1.131-7.475-2.846c-10.109-8.583-17.7-17.933-22.56-27.788c-1.018-2.065-2.073-4.021-3.094-5.916
				c-3.513-6.519-6.636-12.31-6.706-19.446l0,0c-1.444,22.822,10.849,45.916,30.591,57.463c0.271,0.157,0.361,0.503,0.203,0.773
				C582.91,798.678,582.72,798.778,582.527,798.778z"/>
		</g>
		<g>
			<path fill="#2A604A" d="M614.168,782.042c-5.527,0-9.993-4.348-13.644-8.627c-7.985-9.356-13.227-16.974-16.995-24.705
				c-4.804-9.855-7.001-19.949-6.354-29.195c0.022-0.311,0.287-0.581,0.604-0.523c0.311,0.022,0.545,0.292,0.524,0.603
				c-0.634,9.047,1.525,18.944,6.241,28.62c3.725,7.64,8.919,15.186,16.839,24.467c3.559,4.171,7.853,8.387,13.121,8.223
				c0.311-0.057,0.574,0.234,0.585,0.545s-0.233,0.574-0.545,0.585C614.417,782.039,614.292,782.042,614.168,782.042z"/>
		</g>
		<g>
			<path fill="#2A604A" d="M605.368,786.628c-0.051,0-0.104-0.007-0.156-0.022c-6.714-1.917-11.813-7.384-16.322-13.006
				c-4.795-5.975-10.798-14.018-14.697-23.263c-3.944-9.352-5.18-18.739-3.576-27.148c0.059-0.309,0.353-0.526,0.661-0.448
				c0.307,0.057,0.508,0.353,0.449,0.66c-1.562,8.188-0.349,17.352,3.508,26.498c3.843,9.113,9.787,17.076,14.535,22.994
				c4.092,5.101,9.022,10.705,15.752,12.626c0.299,0.086,0.474,0.397,0.388,0.698C605.841,786.467,605.614,786.628,605.368,786.628z
				"/>
		</g>
		<g>
			<path fill="#2A604A" d="M596.284,793.317c-0.054,0-0.11-0.009-0.166-0.024c-3.671-1.124-6.795-3.544-9.367-5.766
				C570,773.05,559.355,752.09,557.55,730.023c-0.025-0.311,0.205-0.585,0.517-0.609c0.299-0.024,0.584,0.205,0.609,0.517
				c1.782,21.775,12.284,42.455,28.815,56.74c2.482,2.144,5.487,4.478,8.959,5.54c0.298,0.093,0.466,0.409,0.375,0.707
				C596.75,793.16,596.526,793.317,596.284,793.317z"/>
		</g>
		<g>
			<path fill="#2A604A" d="M601.062,792.919c-0.047,0-0.096-0.007-0.144-0.018c-3.446-0.908-6.246-3.193-8.759-5.527
				c-17.203-15.981-27.14-39.533-26.581-63.004c0.009-0.311,0.28-0.576,0.579-0.552c0.313,0.007,0.56,0.267,0.552,0.579
				c-0.551,23.153,9.251,46.385,26.22,62.148c2.406,2.237,5.072,4.421,8.276,5.262c0.302,0.08,0.482,0.389,0.403,0.691
				C601.543,792.751,601.313,792.919,601.062,792.919z"/>
		</g>
		<g>
			<path fill="#2A604A" d="M616.103,779.774c-5.885,0-10.397-5.09-14.043-10.091c-11.453-15.714-21.998-31.323-25.203-49.512
				c-0.054-0.307,0.151-0.601,0.458-0.654c0.304-0.066,0.599,0.15,0.655,0.459c3.164,17.948,13.633,33.439,25.005,49.04
				c3.708,5.088,7.855,9.767,13.385,9.623l0,0c0.306,0,0.564,0.243,0.573,0.55c0.009,0.311-0.237,0.572-0.55,0.581
				C616.289,779.772,616.196,779.774,616.103,779.774z"/>
		</g>
		<g>
			<path fill="#2A604A" d="M606.901,783.744c-0.101,0-0.201-0.026-0.292-0.082c-20.193-12.176-33.788-35.272-34.635-58.838
				c-0.011-0.311,0.233-0.574,0.545-0.585c0.308-0.064,0.574,0.234,0.585,0.545c0.833,23.195,14.213,45.926,34.087,57.91
				c0.268,0.161,0.353,0.508,0.192,0.775C607.278,783.647,607.092,783.744,606.901,783.744z"/>
		</g>
		<g>
			<path fill="#2A604A" d="M592.585,793.61c-1.232,0-2.644-0.704-4.218-2.109c-10.566-9.438-17.988-17.959-23.359-26.821
				c-6.741-11.123-10.12-22.873-9.776-33.984c0.01-0.311,0.234-0.521,0.583-0.548c0.313,0.011,0.558,0.272,0.548,0.583
				c-0.339,10.891,2.985,22.429,9.612,33.361c5.311,8.764,12.665,17.204,23.145,26.565c1.843,1.643,3.321,2.173,4.382,1.583
				c0.271-0.15,0.616-0.055,0.77,0.221c0.151,0.272,0.053,0.616-0.22,0.768C593.596,793.482,593.106,793.61,592.585,793.61z"/>
		</g>
	</g>
	<g>
		<path fill="#241B14" d="M347.582,280.62c1.232-2.021,2.649-3.551,4.043-3.307c-7.144-1.247-15.383-5.726-15.663-13.599
			c-0.131-3.668,0.317-7.213,2.145-10.479c1.054-1.884,2.099-3.773,3.04-5.467c-0.14-2.694-2.116-3.922-3.49-5.534
			c-3.39-3.977-3.811-8.309-2.039-13.16c1.766-4.836,4.394-9.112,7.689-12.983c8.792-10.327,20.01-16.4,33.337-18.626
			c5.13-0.857,10.105,0.047,14.885,1.884c3.241,1.245,4.925,4.065,6.335,7.079c0.826,1.767,2.346,2.656,4.295,2.799
			c1.081,0.079,2.16,0.178,3.241,0.258c1.081,0.08,2.169,0.097,3.244,0.227c5.75,0.696,10.989,3.84,13.774,9
			c3.221,5.968-0.538,9.299-2.173,14.934c1.116-3.848,21.939-0.868,24.435-0.541c9.327,1.221,17.97,5.17,25.1,11.287
			c6.997,6.004,10.499,18.562,19.426,21.97c0.272-0.309,0.45-0.63,0.745-0.931c16.131,3.333,24.572,19.063,25.451,34.576
			c0.684,12.076-2.681,24.025-6.966,35.337c-0.608,1.606-1.6,3.478-3.317,3.527c-0.093-9.22-3.478-16.288-9.076-23.699
			c-4.828-6.426-10.358-12.722-12.33-20.513c-9.177,8.388-19.039,16.027-29.454,22.817c-8.272,5.392-17.042,10.374-23.537,17.812
			c-6.853,7.849-10.654,17.843-14.091,27.679c-8.854-7.757-1.688-23.057-15.076-26.145c-5.618-1.296-11.738,0.26-16.308,3.774
			c-3.067,2.359-5.442,5.551-6.99,9.085c-1.579,3.605-1.494,6.42-0.877,10.241c1.202,7.451,4.886,14.18,10.183,19.514
			c2.281,2.297,4.897,4.26,7.355,6.382c0.618,0.534,0.782,1.278,0.206,1.914c-0.439,0.484-1.128,0.936-1.754,1.013
			c-1.049,0.129-2.2,0.16-3.197-0.138c-5.859-1.747-11.656-3.708-17.534-5.383c-4.264-1.215-7.952-3.371-11.414-6.035
			c-11.975-9.214-19.287-21.385-22.391-36.043c-2.491-11.764-3.16-23.603-0.438-35.497c1.366-5.968,3.701-11.448,5.688-17.2
			C344.517,287.188,345.87,283.43,347.582,280.62z"/>
	</g>
	<g>
		<path fill="#E16A1A" d="M501.362,219.84c0.03,8.771-1.244,17.289-4.545,25.471c-0.532,1.32-0.726,2.783-0.99,4.197
			c-0.045,0.24,0.294,0.675,0.562,0.815c0.28,0.147,0.831,0.204,1.021,0.032c7.259-6.57,15.455-11.886,23.407-17.527
			c1.179-0.836,2.361-1.671,3.572-2.461c1.567-1.023,4.183-1.266,5.108-0.411c1.114,1.03,1.647,2.413,1.485,3.894
			c-0.233,2.138-0.403,4.341-1.069,6.362c-2.457,7.464-7.082,13.405-13.558,17.792c-3.583,2.427-7.439,4.45-11.159,6.676
			c-3.092,1.85-6.174,3.717-9.242,5.606c-0.76,0.468-0.699,2.289,0.086,2.816c8.729,5.86,13.909,11.918,19.751,20.87
			c6.745,10.336,5.309,22.025-0.928,32.621c-0.964,1.638-2.628,3.426-4.427,2.816c-1.156-0.392-1.766-1.624-2.256-2.742
			c-1.812-4.135-3.624-8.27-5.436-12.404c-3.492-7.969-8.22-20.631-16.578-24.867c-7.288-3.694-14.493,6.767-19.451,11.361
			c-6.657,6.168-13.152,12.551-20.517,17.899c-5.599,4.065-12.525,7.073-17.1,12.175c-5.447,6.075-10.83,12.209-16.245,18.313
			c-3.021-6.25-10.511-12.966-17.962-12.151c-1.535,0.168-3.018,0.645-4.488,1.119c-0.994,0.321-2.055,0.796-3.08,0.909
			c0.201-1.973,2.513-4.602,3.649-6.258c1.394-2.031,3.181-3.849,4.512-5.901c1.114-1.717,1.967-3.721,3.018-5.506
			c2.294-3.894,4.772-7.682,7.455-11.32c5.31-7.201,11.436-13.816,18.402-19.443c5.942-4.8,12.458-8.642,19.489-11.636
			c5.356-2.281,10.847-3.969,16.69-4.377c2.524-0.176,5.041-0.624,7.563-0.642c12.431-0.087,11.991-0.547,7.319-10.954
			c-1.321-2.941-1.933-6.195-2.954-9.278c-1.933-5.836-1.036-11.451,1.393-16.88c1.177-2.63,2.549-5.212,4.143-7.609
			c5.224-7.856,11.337-14.988,18.235-21.424c0.696-0.65,1.866-0.921,2.863-1.083c0.98-0.16,1.875,1.445,2.035,3.381
			c0.089,1.08,0.201,2.162,0.218,3.244C501.386,215.501,501.362,217.671,501.362,219.84z"/>
	</g>
	<g>
		<path fill="#E16A1A" d="M373.984,359.974c0.74-1.238,1.7-2.402,2.971-3.472c-0.612,0.515,2.671,7.536,3.052,8.388
			c1.296,2.9,2.812,5.702,4.527,8.376c1.662,2.59,3.511,5.06,5.531,7.382c1.783,2.049,5.074,4.146,6.225,6.579
			c0.379,0.801,0.076,1.8-0.53,2.447c-0.606,0.647-1.456,1.006-2.302,1.273c-5.546,1.753-11.916,0.134-16.259-3.735
			c-3.875-3.452-7.03-9.438-6.29-14.722C371.541,367.983,371.788,363.65,373.984,359.974z"/>
	</g>
	<g>
		<path fill="#FFFFFF" d="M806.683,532.719c0.617,10.628-2.944,19.855-8.934,28.378c-10.313,14.677-24.295,23.367-42.064,25.932
			c-4.277,0.617-8.482,1.345-12.908,0.88c-10.878-1.144-19.924-5.671-27.878-13.103c-5.914-5.526-10.448-11.921-14.177-18.986
			c-1.596-3.025-1.756-6.163-0.613-9.435c1.209-3.46,2.991-6.564,5.263-9.408c4.328-5.419,9.469-9.921,15.382-13.536
			c11.857-7.249,24.679-11.877,38.386-14.096c7.493-1.213,14.991-2.499,22.619-1.819c6.477,0.578,12.962,1.281,18.886,4.297
			c1.997,1.017,3.504,2.591,4.046,4.83c0.594,2.451,1.206,4.918,1.501,7.415C806.534,526.93,806.515,529.835,806.683,532.719z"/>
	</g>
	<g>
		<path fill="#D7A360" d="M784.602,523.746c-12.546,4.629-25.928,6.984-39.301,6.916c-3.955-0.02-7.92-0.25-11.86,0.103
			c-5.877,0.526-11.74,2.424-16.335,6.125c-4.595,3.701-7.79,9.333-7.826,15.234c-0.013,2.03,0.454,4.26,2.063,5.497
			c1.03,0.792,2.366,1.047,3.653,1.221c12.396,1.674,24.815-2.06,36.767-5.75c4.943-1.526,9.932-3.072,14.423-5.641
			c4.593-2.627,8.527-6.244,12.418-9.829c3.063-2.823,6.127-5.646,9.19-8.469c2.532-2.333,6.451-6.11,5.577-9.93
			C790.497,520.113,787.652,522.621,784.602,523.746z"/>
	</g>
	<g>
		<path fill="#2A604A" d="M564.409,712.889c4.903,0.85,9.237,1.525,12.718,4.372c1.083,0.886,1.979,2.07,2.722,3.266
			c0.284,0.457-0.044,1.344-0.209,2.006c-0.079,0.316-0.377,0.646-0.664,0.833c-9.375,6.104-18.759,12.194-28.151,18.273
			c-0.293,0.19-0.69,0.212-1.018,0.358c-1.128,0.502-2.94-0.794-3.124-2.18c-0.627-4.729-0.314-9.354,1.447-13.826
			c0.66-1.676,1.364-3.335,1.954-4.771c-0.349-3.317-2.328-5.535-3.881-7.924c-11.221-17.259-22.465-34.504-33.775-51.705
			c-4.195-6.38-7.561-13.121-9.933-20.382c-1.143-3.497-1.584-7.033-1.275-10.675c0.193-2.271,1.037-4.242,3.134-5.354
			c2.45-1.3,4.94-1.005,7.165,0.507c1.478,1.004,2.909,2.194,4.041,3.565c2.295,2.779,4.611,5.592,6.49,8.654
			c3.775,6.151,7.427,12.391,10.836,18.751c6.824,12.729,13.446,25.566,20.164,38.353c1.007,1.917,1.975,3.868,3.151,5.681
			C558.753,704.622,561.429,708.477,564.409,712.889z"/>
	</g>
	<g>
		<path fill="#8C4C20" d="M559.679,699.454c-2.555,0.226-5.061,0.085-7.503-0.706c-4.115-1.357-8.234-2.707-12.349-4.063
			c-1.379-0.452-2.688-1.129-4.09-1.356c-0.972-0.136-2.195,0.064-3.054,0.561c-1.221,0.701-2.235,1.81-3.298,2.782
			c-6.829,6.264-15.292,7.849-24.11,8.03c-2.058,0.045-4.206-0.925-6.196-1.717c-4.025-1.56-7.774-3.831-12.432-4.713
			c-0.995,0.656-2.24,1.365-3.37,2.224c-14.313,11.035-28.426,22.364-42.988,33.037c-25.438,18.632-52.434,34.68-81.061,47.953
			c-12.504,5.811-25.457,10.222-39.024,12.822c-5.698,1.085-11.441,1.648-17.252,1.377c-2.578-0.136-4.772-0.924-6.627-3.072
			c-2.6-3.03-5.11-6.057-7.236-9.449c-5.201-8.298-9.506-17.051-12.536-26.367c-5.856-17.886-10.325-36.07-12.564-54.837
			c-1.221-10.356-1.7-20.688-1.654-31.044c0-1.38,0.023-2.781,0.045-4.161c0-1.967,0.042-3.936,0.11-5.926
			c0.113-4.319,0.811-8.641,1.377-12.915c0.317-2.51,1.042-4.836,2.896-6.849c1.153-1.266,1.656-3.159,2.267-4.832
			c2.261-6.06,6.509-10.34,12.003-13.483c8.118-4.681,16.936-6.104,26.162-4.973c3.708,0.452,6.878,2.214,9.523,4.791
			c1.854,1.786,3.234,4.031,3.438,6.609c0.769,9.18,3.502,17.996,4.994,27.041c0.158,0.927,0.294,1.875,0.429,2.802
			c1.312,9.949,8.28,60.757,8.348,61.186c0.113,0.769,1.855,1.697,2.579,1.381c1.673-0.701,3.346-1.381,4.951-2.172
			c29.78-14.788,60.124-28.357,90.447-41.969c16.145-7.258,32.535-13.969,49.449-19.283c2.419-0.746,4.839-1.448,7.258-2.194
			c2.465-0.746,4.95-0.837,7.505-0.453c7.892,1.221,15.533,3.212,22.678,6.966c13.115,6.919,25.738,14.672,37.519,23.739
			c1.99,1.538,3.801,3.323,5.633,5.064c0.52,0.475,0.829,1.157,1.237,1.767C564.811,695.564,562.823,699.16,559.679,699.454z"/>
	</g>
	<g>
		<path fill="#241B14" d="M329.65,688.894c-16.552-0.497-33.669-0.792-49.271-6.829c-4.319-1.651-15.896-5.811-18.044-11.148
			c-0.158-0.385-0.271-0.814-0.317-1.221c-0.113-1.063,0-2.035,0.362-2.94c2.284-6.196,14.155-8.977,19.017-9.881
			c12.55-2.261,25.393-2.759,38.078-1.47c1.877,0.204,3.776,0.452,5.676,0.814c0.158,0.927,0.294,1.875,0.429,2.802
			C326.891,668.971,328.27,678.944,329.65,688.894z"/>
	</g>
	<g>
		<path fill="#241B14" d="M333.743,718.922c-0.407,0.723-0.792,1.47-1.153,2.216c-1.967,4.025-4.545,9.067-9.022,8.841
			c0.565-7.733,5.042-14.404,8.773-21.323C332.815,712.071,333.29,715.508,333.743,718.922z"/>
	</g>
	<g>
		<path fill="#FEA501" d="M336.682,686.451c-0.384-0.927-0.792-1.854-1.198-2.759c-1.945-4.228-2.578-4.59-7.643-3.912
			c-3.934,0.52-7.914,0.701-11.849,1.244c-7.575,1.017-15.15,0.995-22.748,0.316c-5.042-0.452-10.085-0.791-15.127-1.198
			c-7.959-0.678-15.783-2.058-23.471-4.138c-1.719-0.475-3.414-1.176-4.997-1.968c-2.804-1.402-4.545-3.685-4.477-6.874
			c0.113-4.681,0.43-9.384,0.769-14.065c0.339-4.681,0.927-9.361,1.266-14.042c1.583-23.087,5.178-74.326,5.472-76.858
			c0.859-2.442,1.764-4.907,2.691-7.349c2.781-7.326,6.331-15.15,13.296-18.745c5.879-3.053,13.545-2.239,18.655,2.012
			c4.816,4.002,7.01,10.243,9,16.19c7.688,22.929,15.376,45.88,23.087,68.831c4.997,14.901,9.994,29.825,13.816,45.088
			C334.737,674.219,336.049,680.301,336.682,686.451z"/>
	</g>
	<g>
		<g>
			<path fill="#F8CE7D" d="M318.892,621.604c-2.466-7.342-4.923-14.678-7.385-22.019c-1.494-0.471-3.054-0.802-4.679-0.944
				l-1.902,21.74L318.892,621.604z"/>
		</g>
		<g>
			<path fill="#F8CE7D" d="M335.484,683.693c0.407,0.904,0.814,1.832,1.198,2.759c-0.633-6.15-1.945-12.233-3.46-18.225
				c-1.317-5.262-2.807-10.473-4.356-15.667c-3.331,3.466-5.553,8.043-6.005,13.205c-0.456,5.212,0.963,10.152,3.692,14.164
				c0.429-0.049,0.859-0.09,1.287-0.147C332.906,679.103,333.539,679.464,335.484,683.693z"/>
		</g>
		<g>
			<path fill="#F8CE7D" d="M303.023,642.122c1.5,0.131,2.979,0.108,4.419-0.058c2.161-0.249,4.236-0.816,6.172-1.659
				c0.645-0.281,1.275-0.592,1.888-0.932c2.848-1.581,5.302-3.8,7.197-6.461c-1.09-3.294-3.635-10.897-3.807-11.408l-13.966-1.222
				L303.023,642.122z"/>
		</g>
		<g>
			<path fill="#F8CE7D" d="M306.828,598.642c-0.751-0.066-1.495-0.092-2.233-0.082c-1.475,0.021-2.919,0.19-4.318,0.494
				c-0.699,0.152-1.387,0.338-2.061,0.556c-2.697,0.873-5.179,2.26-7.318,4.055c-2.139,1.795-3.936,3.998-5.264,6.503
				c-1.328,2.505-2.186,5.311-2.449,8.313l21.74,1.902L306.828,598.642z"/>
		</g>
		<g>
			<path fill="#F8CE7D" d="M252.679,562.199c-0.294,2.533-0.543,5.065-0.746,7.598c-0.506,6.453-0.971,12.911-1.418,19.37
				c3.42,3.14,7.849,5.235,12.833,5.671c12.004,1.05,22.592-7.829,23.642-19.838c1.05-12.006-7.834-22.592-19.838-23.642
				c-3.995-0.35-7.822,0.42-11.203,2.019c-0.193,0.492-0.393,0.985-0.579,1.474C254.442,557.292,253.538,559.757,252.679,562.199z"
				/>
		</g>
		<g>
			<path fill="#F8CE7D" d="M279.381,661.96c1.05-12.006-7.834-22.592-19.838-23.642c-4.516-0.395-8.829,0.616-12.511,2.668
				c-0.343,4.037-0.8,8.075-1.092,12.113c-0.339,4.681-0.656,9.384-0.769,14.065c-0.068,3.189,1.673,5.472,4.477,6.874
				c1.583,0.792,3.279,1.492,4.997,1.968c4.583,1.24,9.22,2.2,13.9,2.942C274.494,675.505,278.737,669.328,279.381,661.96z"/>
		</g>
		<g>
			<path fill="#F8CE7D" d="M292.89,638.592c0.587,0.389,1.194,0.75,1.82,1.081c0.626,0.332,1.271,0.634,1.933,0.906
				c1.325,0.542,2.718,0.96,4.167,1.236c0.724,0.138,1.463,0.241,2.213,0.306l1.902-21.74l-21.74-1.902
				c-0.066,0.751-0.092,1.496-0.082,2.233c0.051,3.687,1.031,7.186,2.731,10.248C287.535,634.023,289.956,636.649,292.89,638.592z"
				/>
		</g>
	</g>
	<g>
		<g>
			<path d="M367.393,318.214c-0.178,0-0.36-0.031-0.541-0.095c-0.475-0.166-0.813-0.537-1.036-0.779
				c-8.464-9.308-12.27-23.751-10.182-38.641c0.927-6.614,2.808-11.198,5.917-14.426c0.219-0.223,0.576-0.23,0.799-0.013
				c0.225,0.216,0.232,0.574,0.015,0.799c-2.936,3.047-4.719,7.431-5.612,13.799c-2.041,14.559,1.658,28.66,9.898,37.72
				c0.201,0.221,0.384,0.409,0.575,0.477c0.389,0.126,0.869-0.263,1.022-0.693c0.208-0.585,0.077-1.301-0.039-1.932
				c-0.055-0.307,0.148-0.601,0.455-0.658c0.305-0.062,0.602,0.146,0.658,0.455c0.134,0.733,0.3,1.645-0.01,2.515
				C369.031,317.538,368.248,318.214,367.393,318.214z"/>
		</g>
		<g>
			<path d="M371.037,285.521c-1.372,0.001-2.789-0.749-3.746-2.021c-1.02-1.358-1.403-3.049-1.623-4.372
				c-0.651-3.915-0.423-8.003,0.658-11.816c0.715-2.526,1.953-4.039,3.581-4.372c0.303-0.049,0.605,0.133,0.668,0.442
				c0.062,0.305-0.135,0.603-0.441,0.667c-1.499,0.307-2.306,2.111-2.719,3.573c-1.037,3.655-1.255,7.57-0.632,11.321
				c0.199,1.195,0.539,2.716,1.411,3.878c0.7,0.93,1.985,1.767,3.285,1.533c0.301-0.062,0.602,0.148,0.656,0.457
				c0.055,0.307-0.149,0.601-0.457,0.656C371.467,285.504,371.253,285.521,371.037,285.521z"/>
		</g>
		<g>
			<path d="M385.411,273.299c-0.064,0-0.129-0.011-0.192-0.033c-4.45-1.612-7.237-6.68-6.215-11.299
				c0.067-0.305,0.357-0.495,0.675-0.431c0.305,0.068,0.497,0.369,0.429,0.673c-0.889,4.017,1.629,8.592,5.495,9.992
				c0.294,0.106,0.446,0.431,0.339,0.724C385.859,273.155,385.641,273.299,385.411,273.299z"/>
		</g>
		<g>
			<path d="M365.561,260.67c-5.214,0.001-9.725-4.123-12.182-8.022c-2.059-3.268-3.457-7.013-4.042-10.829
				c-0.643-4.173,0.416-7.512,2.833-8.932c0.264-0.159,0.615-0.071,0.774,0.201c0.158,0.269,0.067,0.616-0.202,0.775
				c-2.967,1.742-2.501,6.397-2.288,7.784c0.562,3.666,1.903,7.261,3.881,10.401c2.577,4.087,7.521,8.457,13.025,7.305
				c3.205-0.673,5.956-3.29,7.007-6.667c0.975-3.133,0.519-6.75-1.252-9.926c-0.152-0.274-0.054-0.618,0.219-0.771
				c0.271-0.152,0.616-0.055,0.768,0.219c1.921,3.445,2.411,7.386,1.345,10.814c-1.171,3.761-4.254,6.68-7.855,7.439
				C366.907,260.604,366.228,260.67,365.561,260.67z"/>
		</g>
		<g>
			<path d="M382.765,248.477c-1.912,0-3.81-0.473-5.395-1.393c-4.238-2.462-7.049-7.484-7.713-13.775
				c-0.019-0.174,0.045-0.349,0.173-0.47c0.128-0.119,0.305-0.172,0.478-0.148c0.849,0.137,1.576,0.786,1.809,1.616
				c0.084,0.3-0.091,0.612-0.392,0.696c-0.297,0.097-0.612-0.091-0.697-0.391c-0.021-0.075-0.052-0.148-0.091-0.219
				c0.834,5.362,3.348,9.59,7,11.715c2.345,1.362,5.469,1.625,8.147,0.687c2.174-0.762,3.774-2.215,4.505-4.096
				c0.114-0.291,0.441-0.426,0.732-0.322c0.29,0.115,0.435,0.442,0.321,0.733c-0.852,2.193-2.694,3.88-5.184,4.752
				C385.278,248.273,384.018,248.477,382.765,248.477z"/>
		</g>
		<g>
			<path d="M397.526,239.703c-3.146,0-6.297-1.411-8.364-3.783c-2.223-2.55-3.172-6.192-2.48-9.502
				c0.063-0.307,0.357-0.492,0.669-0.439c0.306,0.064,0.501,0.364,0.437,0.669c-0.622,2.972,0.232,6.24,2.226,8.53
				c1.994,2.29,5.115,3.568,8.145,3.374c0.299-0.038,0.581,0.212,0.603,0.523c0.021,0.311-0.214,0.583-0.526,0.603
				C398.001,239.697,397.762,239.703,397.526,239.703z"/>
		</g>
	</g>
	<g>
		<g>
			<path d="M434.273,314.742c-0.266,0-0.502-0.188-0.554-0.459c-0.647-3.405,2.2-6.335,4.398-8.243
				c8.689-7.541,18.309-13.993,28.592-19.18c1.784-0.899,3.555-1.903,4.196-3.434c-4.804-0.227-9.401,2.191-13.357,4.494
				c-8.036,4.679-15.751,10.058-22.934,15.99c-0.241,0.201-0.597,0.166-0.796-0.075c-0.199-0.241-0.164-0.596,0.076-0.795
				c7.23-5.971,14.997-11.385,23.085-16.096c4.3-2.504,9.346-5.112,14.728-4.593c0.158,0.015,0.303,0.097,0.397,0.225
				c0.095,0.128,0.131,0.292,0.1,0.446c-0.469,2.391-2.719,3.705-4.984,4.849c-10.201,5.143-19.742,11.544-28.36,19.021
				c-1.987,1.727-4.567,4.348-4.029,7.179c0.059,0.307-0.144,0.603-0.449,0.662C434.343,314.74,434.308,314.742,434.273,314.742z"/>
		</g>
		<g>
			<path d="M480,265.882c-0.448,0-0.846-0.192-1.125-0.543c-0.35-0.442-0.372-1-0.388-1.371c-0.37-9.48-0.255-18.544,5.146-25.233
				c0.197-0.241,0.552-0.28,0.795-0.084c0.243,0.197,0.28,0.552,0.084,0.795c-5.155,6.384-5.257,15.221-4.894,24.478
				c0.012,0.307,0.031,0.572,0.142,0.713c0.067,0.084,0.131,0.11,0.251,0.115c0.378-0.011,0.973-0.424,1.328-0.921
				c2.965-4.143,3.903-9.391,4.809-14.468c0.225-1.259,0.449-2.513,0.702-3.75c1.747-8.532,5.248-13.954,10.405-16.115
				c0.289-0.121,0.621,0.015,0.74,0.303c0.12,0.287-0.014,0.618-0.303,0.74c-4.792,2.007-8.068,7.155-9.734,15.298
				c-0.252,1.228-0.475,2.475-0.698,3.723c-0.929,5.2-1.89,10.577-5.003,14.927c-0.484,0.676-1.357,1.369-2.218,1.391L480,265.882z"
				/>
		</g>
		<g>
			<path d="M491.203,262.976c-0.477,0-0.959-0.062-1.433-0.232c-0.797-0.285-1.477-0.954-1.776-1.744
				c-0.238-0.632-0.206-1.279,0.093-1.82c0.707-1.285,2.444-1.362,3.015-1.387c0.283-0.033,0.575,0.23,0.59,0.541
				c0.013,0.311-0.229,0.576-0.541,0.59c-1.125,0.049-1.804,0.311-2.075,0.802c-0.173,0.316-0.109,0.649-0.024,0.874
				c0.182,0.481,0.614,0.905,1.1,1.08c0.978,0.351,2.174,0.066,3.132-0.163l4.78-1.137c0.303-0.077,0.608,0.115,0.68,0.42
				c0.072,0.305-0.116,0.607-0.42,0.68l-4.777,1.137C492.844,262.784,492.034,262.976,491.203,262.976z"/>
		</g>
	</g>
	<g>
		<path fill="#B9AC97" d="M793.989,514.059c0.351,4.399-1.421,9.162-5.417,14.559c-12.232,16.517-34.033,27.368-59.811,29.771
			c-6.992,0.651-15.845,0.777-22.307-4.079c-3.009-2.259-5.083-6.031-5.546-9.917c-0.28,0.649-0.555,1.302-0.792,1.978
			c0.853,3.508,2.892,6.767,5.659,8.845c4.883,3.668,10.99,4.631,16.715,4.631c2.214,0,4.371-0.144,6.377-0.331
			c26.098-2.433,48.191-13.45,60.614-30.226c4.165-5.627,6.009-10.637,5.634-15.318c-0.128-1.605-0.627-3.223-1.408-4.697
			c-0.522-0.132-1.049-0.241-1.576-0.353C793.149,510.482,793.846,512.266,793.989,514.059z"/>
	</g>
	<g>
		<defs>
			<path id="SVGID_1_" d="M486.646,698.273c-1,0.657-2.245,1.358-3.37,2.224c-14.325,11.02-28.415,22.356-42.988,33.037
				c-25.423,18.635-52.441,34.673-81.061,47.953c-12.509,5.804-25.466,10.214-39.024,12.822c-5.707,1.098-11.45,1.656-17.252,1.377
				c-2.577-0.124-4.774-0.918-6.627-3.072c-2.599-3.023-5.116-6.059-7.236-9.449c-5.198-8.313-9.488-17.044-12.536-26.367
				c-5.851-17.896-10.325-36.064-12.564-54.837c-1.635-13.714-1.908-27.395-1.499-41.13c0.129-4.317,0.815-8.621,1.377-12.915
				c0.329-2.51,1.046-4.833,2.896-6.849c1.149-1.252,1.643-3.16,2.267-4.832c2.26-6.06,6.521-10.337,12.003-13.483
				c8.132-4.667,16.931-6.091,26.162-4.973c3.705,0.449,6.865,2.224,9.523,4.791c1.857,1.793,3.224,4.022,3.438,6.609
				c0.838,10.127,4.1,19.808,5.423,29.843c1.889,14.327,7.516,55.11,8.348,61.186c0.106,0.776,1.843,1.695,2.579,1.381
				c1.657-0.708,3.339-1.372,4.951-2.172c29.778-14.788,60.125-28.357,90.447-41.969c16.147-7.249,32.53-13.98,49.449-19.283
				c2.412-0.756,4.842-1.454,7.258-2.194c2.467-0.756,4.956-0.845,7.505-0.453c7.903,1.215,15.552,3.206,22.678,6.966
				c13.133,6.929,25.737,14.685,37.519,23.739c1.997,1.535,3.796,3.331,5.633,5.064c0.512,0.483,0.845,1.163,1.237,1.767
				c1.634,2.521-0.367,6.116-3.504,6.4c-2.554,0.231-5.058,0.093-7.503-0.706c-4.119-1.346-8.235-2.702-12.349-4.063
				c-1.366-0.452-2.692-1.139-4.09-1.356c-0.981-0.152-2.201,0.065-3.054,0.561c-1.224,0.712-2.234,1.81-3.298,2.782
				c-6.846,6.254-15.291,7.845-24.11,8.03c-2.057,0.043-4.202-0.931-6.196-1.717C495.063,701.405,491.301,699.169,486.646,698.273z"
				/>
		</defs>
		<clipPath id="SVGID_2_">
			<use xlink:href="#SVGID_1_"  overflow="visible"/>
		</clipPath>
		<g clip-path="url(#SVGID_2_)">
			<path d="M515.527,712.603c-0.438,0-0.881-0.13-1.233-0.356c-0.679-0.437-0.902-1.168-0.554-1.822
				c0.149-0.276,0.49-0.375,0.765-0.232c0.276,0.148,0.38,0.49,0.233,0.766c-0.032,0.06-0.092,0.17,0.167,0.336
				c0.351,0.223,0.929,0.256,1.153-0.038c0.45-0.594,0.375-1.544-0.23-2.904c-1.477-3.321-3.494-6.344-5.995-8.983
				c-0.165-0.174-0.202-0.435-0.092-0.649c0.11-0.212,0.339-0.342,0.582-0.298c2.488,0.355,4.559,1.866,6.562,3.328
				c2.153,1.572,4.187,3.056,6.619,3.12c0.655,0,1.094-0.11,1.346-0.375c0.168-0.174,0.283-0.442,0.375-0.863
				c0.473-2.173-0.235-4.679-1.942-6.879c-1.571-2.027-3.719-3.557-5.794-5.039c-0.25-0.177-0.312-0.519-0.141-0.775
				c0.169-0.254,0.514-0.322,0.77-0.163l10.116,6.357c1.003,0.632,2.549,1.274,3.593,1.011c0.373-0.093,0.645-0.298,0.83-0.625
				c0.454-0.797,0.02-1.932-1.291-3.372l-6.944-7.618c-0.623-0.685-0.471-1.197-0.327-1.442c0.167-0.287,0.489-0.42,0.827-0.34
				c0.315,0.075,0.646,0.349,0.67,0.727c0.009,0.148-0.068,0.325-0.182,0.462l6.791,7.453c1.677,1.839,2.161,3.418,1.438,4.69
				c-0.337,0.594-0.868,0.996-1.537,1.164c-1.747,0.444-3.863-0.771-4.47-1.15l-3.678-2.312c0.075,0.093,0.15,0.185,0.224,0.28
				c1.911,2.464,2.696,5.313,2.152,7.81c-0.093,0.431-0.253,0.978-0.66,1.407c-0.479,0.503-1.218,0.757-2.194,0.724
				c-2.786-0.075-5.059-1.733-7.256-3.337c-1.429-1.042-2.8-2.045-4.283-2.639c2.004,2.376,3.657,5.015,4.925,7.868
				c0.289,0.651,1.17,2.634,0.096,4.048C516.605,712.404,516.069,712.603,515.527,712.603z"/>
		</g>
	</g>
	<g>
		<g>
			<path fill="#CD8C38" d="M328.674,659.866c0.308-0.044,0.522-0.331,0.478-0.64c-0.045-0.309-0.336-0.534-0.641-0.477
				c-0.348,0.051-0.697,0.085-1.044,0.134c0.077,0.369,0.153,0.738,0.229,1.108C328.021,659.945,328.348,659.914,328.674,659.866z"
				/>
		</g>
		<g>
			<path fill="#CD8C38" d="M246.122,651.085c-0.032,0.369-0.071,0.738-0.1,1.107c18.432,6.279,37.73,9.52,57.146,9.52
				c7.8,0,15.619-0.542,23.402-1.579c-0.076-0.37-0.153-0.738-0.229-1.107C299.301,662.609,271.843,659.89,246.122,651.085z"/>
		</g>
		<g>
			<path fill="#CD8C38" d="M334.854,682.385c0.199,0.391,0.405,0.818,0.63,1.308c0.042,0.094,0.082,0.192,0.125,0.286
				c0.214-0.045,0.391-0.194,0.433-0.417c0.052-0.281,0.106-0.567,0.158-0.849c-0.51-3.511-1.199-6.998-2.002-10.457
				C334.451,675.633,334.675,679.01,334.854,682.385z"/>
		</g>
		<g>
			<path fill="#CD8C38" d="M324.559,650.769c0.603,2.733,1.207,5.489,1.782,8.258c0.077,0.369,0.154,0.737,0.229,1.107
				c1.315,6.438,2.409,12.95,2.866,19.46c0.42-0.04,0.782-0.056,1.129-0.065c-0.459-6.547-1.554-13.083-2.871-19.538
				c-0.076-0.37-0.152-0.739-0.229-1.108c-0.582-2.803-1.193-5.592-1.803-8.357c-1.496-6.783-3.01-13.667-3.986-20.576
				c-0.59-1.772-1.178-3.544-1.772-5.314C320.736,633.419,322.664,642.175,324.559,650.769z"/>
		</g>
	</g>
	<g>
		<path fill="#241B14" d="M1142.086,984.972c-0.31-2.313,1.645-4.96-12.661-4.944c-36.943,0.041-1010.008-0.977-1058.957,0.354
			c-3.286,0.089-6.892,0.221-9.015,0.782c-1.832,0.484-2.064,1.162-2.213,1.792c-1.278,5.38-14.488,11.72-6.906,17.063
			c4.49,3.161,21.079,2.617,32.729,2.358c17.448-0.388,31.793-0.824,49.607-0.584c28.727,0.386,115.508-0.192,129.418,0.08
			c10.429,0.204,20.317,0.855,31.074,0.935c47.957,0.357,831.379-1.253,835.455-1.167c12.898,0.272,11.688-8.002,11.829-9.518
			C1142.667,989.739,1142.405,987.355,1142.086,984.972z"/>
	</g>
	<g>
		<path fill="#5E2C09" d="M444.989,360.395c-2.718-1.03-5.669-1.435-8.606-1.794c-1.673-0.205-3.486-0.368-5.066,0.551
			c-1.969,1.145-2.973,3.982-2.095,5.92c0.851,1.878,2.959,2.587,4.889,3.147c1.683,0.488,3.367,0.976,5.05,1.465
			c3.016,0.875,7.79,2.122,10.557-1.112C453.227,364.472,447.84,361.475,444.989,360.395z"/>
	</g>
	<g>
		<path fill="#5E2C09" d="M496.21,379.788c-1.492-0.158-2.962-0.407-4.409-0.814c-2.917-0.837-8.525-3.414-5.359-7.778
			c2.397-3.301,6.965-2.646,10.04-2.013C496.594,372.688,496.684,376.193,496.21,379.788z"/>
	</g>
	<g>
		
			<ellipse transform="matrix(0.6656 -0.7463 0.7463 0.6656 -111.5896 454.4287)" fill="#241B14" cx="451.314" cy="351.74" rx="6.025" ry="3.602"/>
	</g>
	<g>
		
			<ellipse transform="matrix(0.6656 -0.7463 0.7463 0.6656 -102.7821 483.5352)" fill="#241B14" cx="488.199" cy="356.465" rx="6.025" ry="3.602"/>
	</g>
	<g>
		<path fill="#5E2C09" d="M474.919,351.74c0,0,0.258,10.691,4.886,19.559c2.958,5.668-7.447,9.997-8.135,2.273
			C470.981,365.847,473.853,354.343,474.919,351.74z"/>
	</g>
	<g>
		<path fill="#241B14" d="M450.79,337.785c-1.34,0.314-2.95,0.687-3.924-0.244c-0.823-0.787-0.687-2.2,0.024-3.103
			c0.711-0.903,1.839-1.393,2.95-1.738c4.605-1.429,9.696-0.931,14.094,0.922c1.689,0.711,3.822,2.045,3.431,4.16
			c-0.348,1.885-1.735,1.582-3.138,1.073C459.868,337.273,455.413,336.701,450.79,337.785z"/>
	</g>
	<g>
		<path fill="#241B14" d="M504.531,338.431c-0.158,0.203-0.297,0.405-0.43,0.588c-0.904,1.251-1.696,2.6-2.465,3.98
			c-2.397-0.611-4.907-0.837-7.507-0.543c-1.379,0.136-3.007,0.316-3.867-0.746c-0.701-0.882-0.384-2.261,0.43-3.075
			c0.837-0.814,2.013-1.153,3.166-1.357C497.453,336.622,501.162,337.119,504.531,338.431z"/>
	</g>
	<g>
		<g>
			<path fill="#241B14" d="M469.546,393.109c-8.396,1.569-17.649-5.439-22.328-11.744c-0.643-0.867-2.116-0.022-1.464,0.856
				c5.178,6.977,15.004,14.25,24.243,12.523C471.068,394.544,470.615,392.91,469.546,393.109z"/>
		</g>
		<g>
			<path fill="#241B14" d="M447.02,378.781c-0.81,1.181-1.922,1.996-3.303,2.375c-1.051,0.289-0.605,1.925,0.451,1.635
				c1.815-0.498,3.26-1.612,4.317-3.155C449.103,378.734,447.634,377.885,447.02,378.781z"/>
		</g>
	</g>
	<g>
		<g>
			<path fill="#241B14" d="M392.378,365.543c-0.071-0.032-0.14-0.072-0.205-0.12c-3.197-2.347-5.155-5.975-5.11-9.469
				c0.052-3.843,2.68-7.353,6.248-8.346c2.465-0.688,5.375-0.268,8.181,1.154c2.368,1.207,4.356,2.931,6.354,4.742
				c0.443,0.401,0.479,1.059,0.081,1.47c-0.398,0.412-1.078,0.419-1.522,0.017c-1.879-1.703-3.741-3.32-5.856-4.399
				c-2.31-1.181-4.632-1.524-6.561-0.986c-2.723,0.758-4.728,3.475-4.768,6.459c-0.038,2.827,1.577,5.786,4.213,7.72
				c0.484,0.355,0.593,1.008,0.245,1.46C393.377,365.638,392.833,365.749,392.378,365.543z"/>
		</g>
		<g>
			<path fill="#241B14" d="M399.963,362.445l-0.035-0.017c-0.538-0.266-0.768-0.895-0.514-1.403
				c1.797-3.595,1.232-8.202-1.405-11.464c-0.374-0.461-0.3-1.113,0.164-1.454c0.464-0.34,1.139-0.245,1.515,0.218
				c3.144,3.889,3.817,9.381,1.675,13.665C401.113,362.487,400.494,362.686,399.963,362.445z"/>
		</g>
	</g>
</g>
</svg>
